<svg id="Layer_1" data-name="Layer 1" xmlns="http://www.w3.org/2000/svg" viewBox="0 0 1400 167"><title>ccd-develop</title><line x1="644" y1="25" x2="644" y2="145" style="fill:none;stroke:red;stroke-miterlimit:10;stroke-width:2px"/><line x1="404.5" y1="24.5" x2="822.5" y2="24.5" style="fill:none;stroke:#000;stroke-miterlimit:10;stroke-width:4px"/><circle cx="405.5" cy="24" r="15"/><circle cx="822.5" cy="24" r="15"/><circle cx="643.5" cy="24" r="15"/><circle cx="463.5" cy="84" r="15"/><circle cx="523.5" cy="84" r="15"/><circle cx="702.5" cy="84" r="15"/><circle cx="762.5" cy="84" r="15"/><circle cx="583.5" cy="84" r="15"/><polyline points="403.91 24.5 463.45 84.05 583.5 84 643.78 23.72" style="fill:none;stroke:#000;stroke-miterlimit:10;stroke-width:4px;fill-rule:evenodd"/><polyline points="643.91 24.5 703.45 84.05 762.5 84.05 822.78 23.77" style="fill:none;stroke:#000;stroke-miterlimit:10;stroke-width:4px;fill-rule:evenodd"/><path d="M867.9,20.37h2.28l.19,1.61h.1a5,5,0,0,1,3.6-1.9,3.21,3.21,0,0,1,3.26,2.11c1.13-1.2,2.3-2.11,3.79-2.11,2.5,0,3.65,1.7,3.65,4.68v7.39H882v-7c0-1.94-.58-2.66-1.8-2.66a3.66,3.66,0,0,0-2.47,1.46v8.23H875v-7c0-1.94-.58-2.66-1.82-2.66a3.71,3.71,0,0,0-2.47,1.46v8.23H867.9Z"/><path d="M887.51,29c0-2.52,2.09-3.84,6.94-4.37,0-1.25-.55-2.3-2.16-2.3A6.71,6.71,0,0,0,889,23.47l-1-1.85a9.22,9.22,0,0,1,4.85-1.54c2.93,0,4.39,1.8,4.39,5.09v7h-2.28l-.19-1.3h-.1A5.74,5.74,0,0,1,891,32.44,3.29,3.29,0,0,1,887.51,29Zm6.94,0V26.35c-3.22.41-4.27,1.25-4.27,2.42s.72,1.51,1.71,1.51A3.75,3.75,0,0,0,894.44,29Z"/><path d="M899.34,30.81l1.3-1.78a5.24,5.24,0,0,0,3.26,1.32c1.27,0,1.87-.6,1.87-1.42,0-1-1.27-1.42-2.52-1.9-1.56-.58-3.31-1.46-3.31-3.43s1.66-3.53,4.3-3.53a6.36,6.36,0,0,1,3.91,1.42l-1.27,1.68a4.39,4.39,0,0,0-2.59-1c-1.18,0-1.73.55-1.73,1.3,0,.94,1.18,1.3,2.45,1.75,1.61.6,3.38,1.37,3.38,3.58,0,2-1.61,3.65-4.58,3.65A7.46,7.46,0,0,1,899.34,30.81Z"/><path d="M910.79,28.17V22.56h-1.68V20.49l1.82-.12.34-3.22h2.3v3.22h3v2.18h-3v5.62c0,1.39.53,2.06,1.66,2.06a3.38,3.38,0,0,0,1.22-.26l.48,2a7.53,7.53,0,0,1-2.4.43C911.79,32.44,910.79,30.72,910.79,28.17Z"/><path d="M917.89,26.28c0-3.84,2.67-6.19,5.42-6.19,3.19,0,4.87,2.3,4.87,5.59a6.42,6.42,0,0,1-.12,1.34h-7.49a3.37,3.37,0,0,0,3.48,3.29,4.92,4.92,0,0,0,2.74-.86l.94,1.73a7.44,7.44,0,0,1-4,1.27C920.43,32.44,917.89,30.16,917.89,26.28Zm7.9-1.13c0-1.82-.79-2.93-2.4-2.93-1.39,0-2.59,1-2.83,2.93Z"/><path d="M930.83,20.37h2.28l.19,2.09h.1a4,4,0,0,1,3.34-2.38,3,3,0,0,1,1.34.24l-.48,2.4a3.85,3.85,0,0,0-1.22-.19c-.94,0-2.06.65-2.78,2.42v7.2h-2.76Z"/><rect x="852.5" y="9" width="100" height="30" rx="15" ry="15" style="fill:none;stroke:#000;stroke-miterlimit:10;stroke-width:2px"/><path d="M983.81,28.17V22.56h-1.68V20.49l1.82-.12.34-3.22h2.3v3.22h3v2.18h-3v5.62c0,1.39.53,2.06,1.66,2.06a3.38,3.38,0,0,0,1.22-.26l.48,2a7.54,7.54,0,0,1-2.4.43C984.81,32.44,983.81,30.72,983.81,28.17Z"/><path d="M991.75,16.75a1.71,1.71,0,1,1,1.7,1.56A1.58,1.58,0,0,1,991.75,16.75Zm.31,3.62h2.76V32.16h-2.76Z"/><path d="M997.58,26.28a5.81,5.81,0,0,1,5.9-6.19,5.08,5.08,0,0,1,3.46,1.32l-1.34,1.8a2.88,2.88,0,0,0-2-.86c-1.9,0-3.22,1.56-3.22,3.94s1.3,3.91,3.14,3.91a3.93,3.93,0,0,0,2.42-1l1.13,1.82a5.89,5.89,0,0,1-3.84,1.44C1000.05,32.44,997.58,30.19,997.58,26.28Z"/><path d="M1009.44,15.21h2.71V25.8h.07l4.37-5.42h3l-4,4.8,4.44,7h-3L1014,27l-1.85,2.11v3h-2.71Z"/><path d="M1020.64,26.28c0-3.84,2.67-6.19,5.43-6.19,3.19,0,4.87,2.3,4.87,5.59a6.43,6.43,0,0,1-.12,1.34h-7.49a3.37,3.37,0,0,0,3.48,3.29,4.92,4.92,0,0,0,2.74-.86l.94,1.73a7.44,7.44,0,0,1-4,1.27C1023.19,32.44,1020.64,30.16,1020.64,26.28Zm7.9-1.13c0-1.82-.79-2.93-2.4-2.93-1.39,0-2.59,1-2.83,2.93Z"/><path d="M1033.75,28.17V22.56h-1.68V20.49l1.82-.12.34-3.22h2.3v3.22h3v2.18h-3v5.62c0,1.39.53,2.06,1.66,2.06a3.38,3.38,0,0,0,1.22-.26l.48,2a7.53,7.53,0,0,1-2.4.43C1034.76,32.44,1033.75,30.72,1033.75,28.17Z"/><path d="M1040.59,30.81l1.29-1.78a5.25,5.25,0,0,0,3.26,1.32c1.27,0,1.87-.6,1.87-1.42,0-1-1.27-1.42-2.52-1.9-1.56-.58-3.31-1.46-3.31-3.43s1.66-3.53,4.3-3.53a6.37,6.37,0,0,1,3.91,1.42l-1.27,1.68a4.39,4.39,0,0,0-2.59-1c-1.18,0-1.73.55-1.73,1.3,0,.94,1.18,1.3,2.45,1.75,1.61.6,3.38,1.37,3.38,3.58,0,2-1.61,3.65-4.58,3.65A7.46,7.46,0,0,1,1040.59,30.81Z"/><path d="M1056.24,15.12h1.87L1052.52,36h-1.87Z"/><path d="M1060.61,16.46h4.2c4.8,0,7.63,2.59,7.63,7.78s-2.83,7.92-7.49,7.92h-4.34Zm4,13.44c3.17,0,5-1.8,5-5.66s-1.8-5.52-5-5.52h-1.22V29.9Z"/><path d="M1075.61,16.46h3.14l2.78,7.68c.34,1,.67,2,1,3.07h.1c.34-1,.65-2.09,1-3.07l2.71-7.68h3.17v15.7h-2.57V25c0-1.46.22-3.55.36-5h-.1l-1.27,3.65-2.57,7.06h-1.66l-2.59-7.06L1077.86,20h-.1c.12,1.44.36,3.53.36,5v7.18h-2.52Z"/><path d="M1092.5,25.1h5.71v2h-5.71Z"/><path d="M1100.13,30.55c4.25-4.1,6.91-6.79,6.91-9.12a2.37,2.37,0,0,0-2.52-2.64,4.22,4.22,0,0,0-3,1.7L1100,19a6.25,6.25,0,0,1,4.87-2.35,4.46,4.46,0,0,1,4.82,4.68c0,2.71-2.52,5.5-5.54,8.69.79-.07,1.8-.17,2.54-.17h3.74v2.35h-10.32Z"/><rect x="968" y="9" width="157" height="30" rx="15" ry="15" style="fill:none;stroke:#000;stroke-miterlimit:10;stroke-width:2px"/><path d="M660.31,148.17v-5.62h-1.68v-2.06l1.82-.12.34-3.22h2.3v3.22h3v2.18h-3v5.62c0,1.39.53,2.06,1.66,2.06A3.38,3.38,0,0,0,666,150l.48,2a7.53,7.53,0,0,1-2.4.43C661.31,152.44,660.31,150.72,660.31,148.17Z"/><path d="M668.25,136.75a1.71,1.71,0,1,1,1.7,1.56A1.59,1.59,0,0,1,668.25,136.75Zm.31,3.62h2.76v11.79h-2.76Z"/><path d="M674.08,146.28a5.81,5.81,0,0,1,5.9-6.19,5.08,5.08,0,0,1,3.46,1.32l-1.34,1.8a2.88,2.88,0,0,0-2-.86c-1.9,0-3.22,1.56-3.22,3.94s1.3,3.91,3.14,3.91a3.93,3.93,0,0,0,2.42-1l1.13,1.82a5.89,5.89,0,0,1-3.84,1.44C676.55,152.44,674.08,150.19,674.08,146.28Z"/><path d="M685.94,135.21h2.71V145.8h.07l4.37-5.42h3l-4,4.8,4.44,7h-3l-3-5.11-1.85,2.11v3h-2.71Z"/><path d="M697.15,146.28c0-3.84,2.66-6.19,5.43-6.19,3.19,0,4.87,2.3,4.87,5.59a6.43,6.43,0,0,1-.12,1.34h-7.49a3.37,3.37,0,0,0,3.48,3.29,4.92,4.92,0,0,0,2.74-.86l.94,1.73a7.44,7.44,0,0,1-4,1.27C699.69,152.44,697.15,150.16,697.15,146.28Zm7.9-1.13c0-1.82-.79-2.93-2.4-2.93-1.39,0-2.59,1-2.83,2.93Z"/><path d="M710.25,148.17v-5.62h-1.68v-2.06l1.82-.12.34-3.22H713v3.22h3v2.18h-3v5.62c0,1.39.53,2.06,1.66,2.06a3.38,3.38,0,0,0,1.22-.26l.48,2a7.53,7.53,0,0,1-2.4.43C711.26,152.44,710.25,150.72,710.25,148.17Z"/><path d="M717.09,150.81l1.29-1.78a5.25,5.25,0,0,0,3.26,1.32c1.27,0,1.87-.6,1.87-1.42,0-1-1.27-1.42-2.52-1.9-1.56-.58-3.31-1.46-3.31-3.43s1.66-3.53,4.3-3.53a6.37,6.37,0,0,1,3.91,1.42l-1.27,1.68a4.39,4.39,0,0,0-2.59-1c-1.18,0-1.73.55-1.73,1.3,0,.94,1.18,1.3,2.45,1.75,1.61.6,3.38,1.37,3.38,3.58,0,2-1.61,3.65-4.58,3.65A7.46,7.46,0,0,1,717.09,150.81Z"/><path d="M732.74,135.12h1.87L729,156h-1.87Z"/><path d="M737.11,136.46h4.2c4.8,0,7.63,2.59,7.63,7.78s-2.83,7.92-7.49,7.92h-4.34Zm4,13.44c3.17,0,5-1.8,5-5.66s-1.8-5.52-5-5.52h-1.22V149.9Z"/><path d="M752.11,136.46h3.14l2.78,7.68c.34,1,.67,2,1,3.07h.1c.34-1,.65-2.09,1-3.07l2.71-7.68H766v15.7h-2.57V145c0-1.46.22-3.55.36-5h-.1l-1.27,3.65-2.57,7.06H758.2l-2.59-7.06L754.36,140h-.1c.12,1.44.36,3.53.36,5v7.18h-2.52Z"/><path d="M769,145.1h5.71v2H769Z"/><path d="M777.5,149.9h3.41v-10H778.1v-1.73a10.26,10.26,0,0,0,3.53-1.25h2.06v13h3v2.26H777.5Z"/><rect x="644.5" y="129" width="157" height="30" rx="15" ry="15" style="fill:none;stroke:#000;stroke-miterlimit:10;stroke-width:2px"/></svg>