<svg id="Layer_1" data-name="Layer 1" xmlns="http://www.w3.org/2000/svg" viewBox="0 0 1400 100"><title>ccd-submit</title><path d="M1013.68,22.28c0-3.84,2.42-6.19,5-6.19a4.35,4.35,0,0,1,3.1,1.3l-.1-1.9V11.21h2.76V28.16h-2.28l-.19-1.27h-.1a4.92,4.92,0,0,1-3.34,1.56C1015.57,28.44,1013.68,26.16,1013.68,22.28Zm8,2.57v-5.5a3.51,3.51,0,0,0-2.4-1c-1.51,0-2.74,1.42-2.74,3.89s1,3.91,2.67,3.91A3.18,3.18,0,0,0,1021.67,24.84Z"/><path d="M1027.17,22.28c0-3.94,2.66-6.19,5.59-6.19s5.62,2.26,5.62,6.19-2.66,6.17-5.62,6.17S1027.17,26.19,1027.17,22.28Zm8.38,0c0-2.38-1.06-3.94-2.79-3.94S1030,19.9,1030,22.28s1,3.91,2.76,3.91S1035.54,24.63,1035.54,22.28Z"/><path d="M1040.34,22.28a5.81,5.81,0,0,1,5.9-6.19,5.08,5.08,0,0,1,3.46,1.32l-1.34,1.8a2.88,2.88,0,0,0-2-.86c-1.9,0-3.22,1.56-3.22,3.94s1.3,3.91,3.14,3.91a3.93,3.93,0,0,0,2.42-1l1.13,1.82a5.89,5.89,0,0,1-3.84,1.44C1042.81,28.44,1040.34,26.19,1040.34,22.28Z"/><path d="M1052.08,23.76V16.37h2.76v7c0,1.94.55,2.66,1.82,2.66,1,0,1.73-.48,2.62-1.63V16.37H1062V28.16h-2.26l-.22-1.73h-.07a4.8,4.8,0,0,1-3.79,2C1053.18,28.44,1052.08,26.74,1052.08,23.76Z"/><path d="M1064.37,26.81l1.3-1.78a5.24,5.24,0,0,0,3.26,1.32c1.27,0,1.87-.6,1.87-1.42,0-1-1.27-1.42-2.52-1.9-1.56-.58-3.31-1.46-3.31-3.43s1.66-3.53,4.3-3.53a6.36,6.36,0,0,1,3.91,1.42l-1.27,1.68a4.39,4.39,0,0,0-2.59-1c-1.18,0-1.73.55-1.73,1.3,0,.94,1.18,1.3,2.45,1.75,1.61.6,3.38,1.37,3.38,3.58,0,2-1.61,3.65-4.58,3.65A7.47,7.47,0,0,1,1064.37,26.81Z"/><path d="M1075.89,11.21h2.76v4.37l-.1,2.28a5.4,5.4,0,0,1,3.77-1.78c2.52,0,3.63,1.7,3.63,4.68v7.39h-2.76v-7c0-1.94-.55-2.66-1.85-2.66-1,0-1.7.5-2.69,1.46v8.23h-2.76Z"/><path d="M1088.65,25c0-2.52,2.09-3.84,6.94-4.37,0-1.25-.55-2.3-2.16-2.3a6.72,6.72,0,0,0-3.31,1.15l-1-1.85a9.22,9.22,0,0,1,4.85-1.54c2.93,0,4.39,1.8,4.39,5.09v7h-2.28l-.19-1.3h-.1a5.74,5.74,0,0,1-3.65,1.58A3.3,3.3,0,0,1,1088.65,25Zm6.94,0V22.35c-3.22.41-4.27,1.25-4.27,2.42s.72,1.51,1.7,1.51A3.74,3.74,0,0,0,1095.59,25Z"/><path d="M1101.66,16.37h2.28l.19,2.09h.1a4,4,0,0,1,3.34-2.38,3,3,0,0,1,1.34.24l-.48,2.4a3.85,3.85,0,0,0-1.22-.19c-.94,0-2.06.65-2.78,2.42v7.2h-2.76Z"/><path d="M1109.61,22.28c0-3.84,2.66-6.19,5.42-6.19,3.19,0,4.87,2.3,4.87,5.59a6.48,6.48,0,0,1-.12,1.34h-7.49a3.37,3.37,0,0,0,3.48,3.29,4.92,4.92,0,0,0,2.74-.86l.94,1.73a7.43,7.43,0,0,1-4,1.27C1112.15,28.44,1109.61,26.16,1109.61,22.28Zm7.9-1.13c0-1.82-.79-2.93-2.4-2.93-1.39,0-2.59,1-2.83,2.93Z"/><path d="M1122,21.1h5.71v2H1122Z"/><path d="M1128.76,16.37h2.81l1.87,6.12c.31,1.15.67,2.35,1,3.55h.1c.34-1.2.67-2.4,1-3.55l1.87-6.12h2.66l-4,11.79h-3.19Z"/><path d="M1142.13,25.9h3.41v-10h-2.81V14.14a10.27,10.27,0,0,0,3.53-1.25h2.06v13h3v2.26h-9.19Z"/><path d="M833.81,24.17V18.56h-1.68V16.49l1.82-.12.34-3.22h2.3v3.22h3v2.18h-3v5.62c0,1.39.53,2.06,1.66,2.06a3.38,3.38,0,0,0,1.22-.26l.48,2a7.54,7.54,0,0,1-2.4.43C834.81,28.44,833.81,26.72,833.81,24.17Z"/><path d="M841.75,12.75a1.71,1.71,0,1,1,1.7,1.56A1.58,1.58,0,0,1,841.75,12.75Zm.31,3.62h2.76V28.16h-2.76Z"/><path d="M847.58,22.28a5.81,5.81,0,0,1,5.9-6.19,5.08,5.08,0,0,1,3.46,1.32l-1.34,1.8a2.88,2.88,0,0,0-2-.86c-1.9,0-3.22,1.56-3.22,3.94s1.3,3.91,3.14,3.91a3.93,3.93,0,0,0,2.42-1L857.11,27a5.89,5.89,0,0,1-3.84,1.44C850.05,28.44,847.58,26.19,847.58,22.28Z"/><path d="M859.44,11.21h2.71V21.8h.07l4.37-5.42h3l-4,4.8,4.44,7h-3L864,23l-1.85,2.11v3h-2.71Z"/><path d="M870.64,22.28c0-3.84,2.67-6.19,5.43-6.19,3.19,0,4.87,2.3,4.87,5.59a6.43,6.43,0,0,1-.12,1.34h-7.49a3.37,3.37,0,0,0,3.48,3.29,4.92,4.92,0,0,0,2.74-.86l.94,1.73a7.44,7.44,0,0,1-4,1.27C873.19,28.44,870.64,26.16,870.64,22.28Zm7.9-1.13c0-1.82-.79-2.93-2.4-2.93-1.39,0-2.59,1-2.83,2.93Z"/><path d="M883.75,24.17V18.56h-1.68V16.49l1.82-.12.34-3.22h2.3v3.22h3v2.18h-3v5.62c0,1.39.53,2.06,1.66,2.06a3.38,3.38,0,0,0,1.22-.26l.48,2a7.53,7.53,0,0,1-2.4.43C884.76,28.44,883.75,26.72,883.75,24.17Z"/><path d="M890.59,26.81,891.88,25a5.25,5.25,0,0,0,3.26,1.32c1.27,0,1.87-.6,1.87-1.42,0-1-1.27-1.42-2.52-1.9-1.56-.58-3.31-1.46-3.31-3.43s1.66-3.53,4.3-3.53a6.37,6.37,0,0,1,3.91,1.42l-1.27,1.68a4.39,4.39,0,0,0-2.59-1c-1.18,0-1.73.55-1.73,1.3,0,.94,1.18,1.3,2.45,1.75,1.61.6,3.38,1.37,3.38,3.58,0,2-1.61,3.65-4.58,3.65A7.46,7.46,0,0,1,890.59,26.81Z"/><path d="M906.24,11.12h1.87L902.52,32h-1.87Z"/><path d="M919.17,28.16,915.79,22h-2.4v6.14h-2.78V12.46h5.3c3.26,0,5.76,1.15,5.76,4.66a4.39,4.39,0,0,1-3.12,4.49l3.74,6.55Zm-5.79-8.35h2.23c2.14,0,3.31-.91,3.31-2.69s-1.18-2.42-3.31-2.42h-2.23Z"/><path d="M924.81,12.46h9.48v2.35h-6.7v4.44h5.71V21.6H927.6v6.55h-2.79Z"/><path d="M936,20.36c0-5.14,3.22-8.18,7.18-8.18a6.23,6.23,0,0,1,4.54,2L946.22,16a4.09,4.09,0,0,0-3-1.37c-2.57,0-4.39,2.16-4.39,5.69S940.53,26,943.17,26a4.47,4.47,0,0,0,3.36-1.61L948,26.16a6.33,6.33,0,0,1-4.94,2.28C939.12,28.44,936,25.56,936,20.36Z"/><path d="M948.91,21.1h5.71v2h-5.71Z"/><path d="M957.4,25.9h3.41v-10H958V14.14a10.28,10.28,0,0,0,3.53-1.25h2.06v13h3v2.26H957.4Z"/><rect x="818" y="5" width="164" height="30" rx="15" ry="15" style="fill:none;stroke:#000;stroke-miterlimit:10;stroke-width:2px"/><line x1="255" y1="20.5" x2="673" y2="20.5" style="fill:none;stroke:#000;stroke-miterlimit:10;stroke-width:4px"/><circle cx="256" cy="20" r="15"/><circle cx="673" cy="20" r="15"/><circle cx="494" cy="20" r="15"/><circle cx="314" cy="80" r="15"/><circle cx="374" cy="80" r="15"/><circle cx="553" cy="80" r="15"/><circle cx="613" cy="80" r="15"/><circle cx="434" cy="80" r="15"/><polyline points="254.41 20.5 313.95 80.05 434 80 494.28 19.72" style="fill:none;stroke:#000;stroke-miterlimit:10;stroke-width:4px;fill-rule:evenodd"/><polyline points="494.41 20.5 553.95 80.05 613 80.05 673.28 19.77" style="fill:none;stroke:#000;stroke-miterlimit:10;stroke-width:4px;fill-rule:evenodd"/><path d="M718.4,16.37h2.28l.19,1.61h.1a5,5,0,0,1,3.6-1.9,3.21,3.21,0,0,1,3.26,2.11c1.13-1.2,2.3-2.11,3.79-2.11,2.5,0,3.65,1.7,3.65,4.68v7.39h-2.78v-7c0-1.94-.58-2.66-1.8-2.66a3.66,3.66,0,0,0-2.47,1.46v8.23h-2.76v-7c0-1.94-.58-2.66-1.82-2.66a3.71,3.71,0,0,0-2.47,1.46v8.23H718.4Z"/><path d="M738,25c0-2.52,2.09-3.84,6.94-4.37,0-1.25-.55-2.3-2.16-2.3a6.71,6.71,0,0,0-3.31,1.15l-1-1.85a9.22,9.22,0,0,1,4.85-1.54c2.93,0,4.39,1.8,4.39,5.09v7h-2.28l-.19-1.3h-.1a5.74,5.74,0,0,1-3.65,1.58A3.29,3.29,0,0,1,738,25Zm6.94,0V22.35c-3.22.41-4.27,1.25-4.27,2.42s.72,1.51,1.71,1.51A3.75,3.75,0,0,0,744.94,25Z"/><path d="M749.84,26.81l1.3-1.78a5.24,5.24,0,0,0,3.26,1.32c1.27,0,1.87-.6,1.87-1.42,0-1-1.27-1.42-2.52-1.9-1.56-.58-3.31-1.46-3.31-3.43s1.66-3.53,4.3-3.53a6.36,6.36,0,0,1,3.91,1.42l-1.27,1.68a4.39,4.39,0,0,0-2.59-1c-1.18,0-1.73.55-1.73,1.3,0,.94,1.18,1.3,2.45,1.75,1.61.6,3.38,1.37,3.38,3.58,0,2-1.61,3.65-4.58,3.65A7.46,7.46,0,0,1,749.84,26.81Z"/><path d="M761.29,24.17V18.56h-1.68V16.49l1.82-.12.34-3.22h2.3v3.22h3v2.18h-3v5.62c0,1.39.53,2.06,1.66,2.06A3.38,3.38,0,0,0,767,26l.48,2a7.53,7.53,0,0,1-2.4.43C762.29,28.44,761.29,26.72,761.29,24.17Z"/><path d="M768.39,22.28c0-3.84,2.67-6.19,5.42-6.19,3.19,0,4.87,2.3,4.87,5.59a6.42,6.42,0,0,1-.12,1.34h-7.49a3.37,3.37,0,0,0,3.48,3.29,4.92,4.92,0,0,0,2.74-.86l.94,1.73a7.44,7.44,0,0,1-4,1.27C770.93,28.44,768.39,26.16,768.39,22.28Zm7.9-1.13c0-1.82-.79-2.93-2.4-2.93-1.39,0-2.59,1-2.83,2.93Z"/><path d="M781.33,16.37h2.28l.19,2.09h.1a4,4,0,0,1,3.34-2.38,3,3,0,0,1,1.34.24l-.48,2.4a3.85,3.85,0,0,0-1.22-.19c-.94,0-2.06.65-2.78,2.42v7.2h-2.76Z"/><rect x="703" y="5" width="100" height="30" rx="15" ry="15" style="fill:none;stroke:#000;stroke-miterlimit:10;stroke-width:2px"/><polygon points="1159 35 1012 35 997 20 1012 5 1159 5 1159 35" style="fill:none;stroke:#000;stroke-linecap:round;stroke-linejoin:round;stroke-width:2px;fill-rule:evenodd"/></svg>