<svg id="Layer_1" data-name="Layer 1" xmlns="http://www.w3.org/2000/svg" viewBox="0 0 1400 291"><title>ccd-amend</title><line x1="704" y1="28" x2="704" y2="148" style="fill:none;stroke:red;stroke-miterlimit:10;stroke-width:2px"/><path d="M869.81,152.17v-5.62h-1.68v-2.06l1.82-.12.34-3.22h2.3v3.22h3v2.18h-3v5.62c0,1.39.53,2.06,1.66,2.06a3.37,3.37,0,0,0,1.22-.26l.48,2a7.54,7.54,0,0,1-2.4.43C870.81,156.45,869.81,154.72,869.81,152.17Z"/><path d="M877.75,140.75a1.71,1.71,0,1,1,1.7,1.56A1.58,1.58,0,0,1,877.75,140.75Zm.31,3.62h2.76v11.79h-2.76Z"/><path d="M883.58,150.28a5.81,5.81,0,0,1,5.9-6.19,5.08,5.08,0,0,1,3.46,1.32l-1.34,1.8a2.88,2.88,0,0,0-2-.86c-1.9,0-3.22,1.56-3.22,3.94s1.3,3.91,3.14,3.91a3.93,3.93,0,0,0,2.42-1l1.13,1.82a5.89,5.89,0,0,1-3.84,1.44C886.05,156.45,883.58,154.19,883.58,150.28Z"/><path d="M895.44,139.21h2.71V149.8h.07l4.37-5.43h3l-4,4.8,4.44,7h-3L900,151l-1.85,2.11v3h-2.71Z"/><path d="M906.64,150.28c0-3.84,2.67-6.19,5.43-6.19,3.19,0,4.87,2.3,4.87,5.59a6.43,6.43,0,0,1-.12,1.34h-7.49a3.37,3.37,0,0,0,3.48,3.29,4.92,4.92,0,0,0,2.74-.86l.94,1.73a7.45,7.45,0,0,1-4,1.27C909.19,156.45,906.64,154.16,906.64,150.28Zm7.9-1.13c0-1.82-.79-2.93-2.4-2.93-1.39,0-2.59,1-2.83,2.93Z"/><path d="M919.75,152.17v-5.62h-1.68v-2.06l1.82-.12.34-3.22h2.3v3.22h3v2.18h-3v5.62c0,1.39.53,2.06,1.66,2.06a3.37,3.37,0,0,0,1.22-.26l.48,2a7.53,7.53,0,0,1-2.4.43C920.76,156.45,919.75,154.72,919.75,152.17Z"/><path d="M926.59,154.81l1.29-1.78a5.25,5.25,0,0,0,3.26,1.32c1.27,0,1.87-.6,1.87-1.42,0-1-1.27-1.42-2.52-1.9-1.56-.58-3.31-1.46-3.31-3.43s1.66-3.53,4.3-3.53a6.37,6.37,0,0,1,3.91,1.42l-1.27,1.68a4.39,4.39,0,0,0-2.59-1c-1.18,0-1.73.55-1.73,1.3,0,.94,1.18,1.3,2.45,1.75,1.61.6,3.38,1.37,3.38,3.58,0,2-1.61,3.65-4.58,3.65A7.46,7.46,0,0,1,926.59,154.81Z"/><path d="M942.24,139.12h1.87L938.52,160h-1.87Z"/><path d="M955.17,156.16,951.79,150h-2.4v6.14h-2.78v-15.7h5.3c3.26,0,5.76,1.15,5.76,4.66a4.39,4.39,0,0,1-3.12,4.49l3.74,6.55Zm-5.79-8.35h2.23c2.14,0,3.31-.91,3.31-2.69s-1.18-2.42-3.31-2.42h-2.23Z"/><path d="M960.81,140.46h9.48v2.35h-6.7v4.44h5.71v2.35H963.6v6.55h-2.79Z"/><path d="M972,148.36c0-5.14,3.22-8.18,7.18-8.18a6.23,6.23,0,0,1,4.54,2l-1.49,1.8a4.09,4.09,0,0,0-3-1.37c-2.57,0-4.39,2.16-4.39,5.69s1.68,5.74,4.32,5.74a4.47,4.47,0,0,0,3.36-1.61l1.49,1.75a6.33,6.33,0,0,1-4.94,2.28C975.12,156.45,972,153.56,972,148.36Z"/><path d="M984.91,149.1h5.71v2h-5.71Z"/><path d="M993.4,153.9h3.41v-10H994v-1.73a10.29,10.29,0,0,0,3.53-1.25h2.06v13h3v2.26H993.4Z"/><rect x="854" y="133" width="164" height="30" rx="15" ry="15" style="fill:none;stroke:#000;stroke-miterlimit:10;stroke-width:2px"/><path d="M1049.81,152.17v-5.62h-1.68v-2.06l1.82-.12.34-3.22h2.3v3.22h3v2.18h-3v5.62c0,1.39.53,2.06,1.66,2.06a3.37,3.37,0,0,0,1.22-.26l.48,2a7.54,7.54,0,0,1-2.4.43C1050.81,156.45,1049.81,154.72,1049.81,152.17Z"/><path d="M1057.75,140.75a1.71,1.71,0,1,1,1.7,1.56A1.58,1.58,0,0,1,1057.75,140.75Zm.31,3.62h2.76v11.79h-2.76Z"/><path d="M1063.58,150.28a5.81,5.81,0,0,1,5.9-6.19,5.08,5.08,0,0,1,3.46,1.32l-1.34,1.8a2.88,2.88,0,0,0-2-.86c-1.9,0-3.22,1.56-3.22,3.94s1.3,3.91,3.14,3.91a3.93,3.93,0,0,0,2.42-1l1.13,1.82a5.89,5.89,0,0,1-3.84,1.44C1066.05,156.45,1063.58,154.19,1063.58,150.28Z"/><path d="M1075.44,139.21h2.71V149.8h.07l4.37-5.43h3l-4,4.8,4.44,7h-3l-3-5.11-1.85,2.11v3h-2.71Z"/><path d="M1086.64,150.28c0-3.84,2.67-6.19,5.43-6.19,3.19,0,4.87,2.3,4.87,5.59a6.43,6.43,0,0,1-.12,1.34h-7.49a3.37,3.37,0,0,0,3.48,3.29,4.92,4.92,0,0,0,2.74-.86l.94,1.73a7.45,7.45,0,0,1-4,1.27C1089.19,156.45,1086.64,154.16,1086.64,150.28Zm7.9-1.13c0-1.82-.79-2.93-2.4-2.93-1.39,0-2.59,1-2.83,2.93Z"/><path d="M1099.75,152.17v-5.62h-1.68v-2.06l1.82-.12.34-3.22h2.3v3.22h3v2.18h-3v5.62c0,1.39.53,2.06,1.66,2.06a3.37,3.37,0,0,0,1.22-.26l.48,2a7.53,7.53,0,0,1-2.4.43C1100.76,156.45,1099.75,154.72,1099.75,152.17Z"/><path d="M1106.59,154.81l1.29-1.78a5.25,5.25,0,0,0,3.26,1.32c1.27,0,1.87-.6,1.87-1.42,0-1-1.27-1.42-2.52-1.9-1.56-.58-3.31-1.46-3.31-3.43s1.66-3.53,4.3-3.53a6.37,6.37,0,0,1,3.91,1.42l-1.27,1.68a4.39,4.39,0,0,0-2.59-1c-1.18,0-1.73.55-1.73,1.3,0,.94,1.18,1.3,2.45,1.75,1.61.6,3.38,1.37,3.38,3.58,0,2-1.61,3.65-4.58,3.65A7.46,7.46,0,0,1,1106.59,154.81Z"/><path d="M1122.24,139.12h1.87L1118.52,160h-1.87Z"/><path d="M1126.61,140.46h4.2c4.8,0,7.63,2.59,7.63,7.78s-2.83,7.92-7.49,7.92h-4.34Zm4,13.44c3.17,0,5-1.8,5-5.66s-1.8-5.52-5-5.52h-1.22V153.9Z"/><path d="M1141.61,140.46h3.14l2.78,7.68c.34,1,.67,2,1,3.07h.1c.34-1,.65-2.09,1-3.07l2.71-7.68h3.17v15.7h-2.57V149c0-1.46.22-3.55.36-5h-.1l-1.27,3.65-2.57,7.06h-1.66l-2.59-7.06-1.25-3.65h-.1c.12,1.44.36,3.53.36,5v7.18h-2.52Z"/><path d="M1158.5,149.1h5.71v2h-5.71Z"/><path d="M1176.91,152.22H1175v3.94h-2.59v-3.94h-6.75v-1.87l6-9.46H1175v9.19h1.92Zm-4.51-2.14v-3.46c0-.89.07-2.28.12-3.17h-.1c-.38.79-.82,1.56-1.25,2.38l-2.79,4.25Z"/><rect x="1034" y="133" width="158" height="30" rx="15" ry="15" style="fill:none;stroke:#000;stroke-miterlimit:10;stroke-width:2px"/><line x1="45" y1="208.5" x2="463" y2="208.5" style="fill:none;stroke:#000;stroke-miterlimit:10;stroke-width:4px"/><circle cx="46" cy="208" r="15"/><circle cx="463" cy="208" r="15"/><circle cx="284" cy="208" r="15"/><circle cx="104" cy="268" r="15"/><circle cx="164" cy="268" r="15"/><circle cx="343" cy="268" r="15"/><circle cx="403" cy="268" r="15"/><circle cx="224" cy="268" r="15"/><polyline points="44.41 208.5 103.95 268.05 224 268 284.28 207.72" style="fill:none;stroke:#000;stroke-miterlimit:10;stroke-width:4px;fill-rule:evenodd"/><polyline points="284.41 208.5 343.95 268.05 403 268.05 463.28 207.77" style="fill:none;stroke:#000;stroke-miterlimit:10;stroke-width:4px;fill-rule:evenodd"/><path d="M508.4,204.37h2.28l.19,1.61h.1a5,5,0,0,1,3.6-1.9,3.21,3.21,0,0,1,3.26,2.11c1.13-1.2,2.3-2.11,3.79-2.11,2.5,0,3.65,1.7,3.65,4.68v7.39h-2.78v-7c0-1.94-.58-2.66-1.8-2.66a3.66,3.66,0,0,0-2.47,1.46v8.23h-2.76v-7c0-1.94-.58-2.66-1.82-2.66a3.71,3.71,0,0,0-2.47,1.46v8.23H508.4Z"/><path d="M528,213c0-2.52,2.09-3.84,6.94-4.37,0-1.25-.55-2.3-2.16-2.3a6.71,6.71,0,0,0-3.31,1.15l-1-1.85a9.22,9.22,0,0,1,4.85-1.54c2.93,0,4.39,1.8,4.39,5.09v7h-2.28l-.19-1.29h-.1a5.74,5.74,0,0,1-3.65,1.58A3.29,3.29,0,0,1,528,213Zm6.94,0v-2.64c-3.22.41-4.27,1.25-4.27,2.42s.72,1.51,1.71,1.51A3.75,3.75,0,0,0,534.94,213Z"/><path d="M539.84,214.81l1.3-1.78a5.25,5.25,0,0,0,3.26,1.32c1.27,0,1.87-.6,1.87-1.42,0-1-1.27-1.42-2.52-1.9-1.56-.58-3.31-1.46-3.31-3.43s1.66-3.53,4.3-3.53a6.36,6.36,0,0,1,3.91,1.42l-1.27,1.68a4.39,4.39,0,0,0-2.59-1c-1.18,0-1.73.55-1.73,1.3,0,.94,1.18,1.3,2.45,1.75,1.61.6,3.38,1.37,3.38,3.58,0,2-1.61,3.65-4.58,3.65A7.47,7.47,0,0,1,539.84,214.81Z"/><path d="M551.29,212.17v-5.62h-1.68v-2.06l1.82-.12.34-3.22h2.3v3.22h3v2.18h-3v5.62c0,1.39.53,2.06,1.66,2.06A3.37,3.37,0,0,0,557,214l.48,2a7.53,7.53,0,0,1-2.4.43C552.29,216.45,551.29,214.72,551.29,212.17Z"/><path d="M558.39,210.28c0-3.84,2.67-6.19,5.42-6.19,3.19,0,4.87,2.3,4.87,5.59a6.42,6.42,0,0,1-.12,1.34h-7.49a3.37,3.37,0,0,0,3.48,3.29,4.93,4.93,0,0,0,2.74-.86l.94,1.73a7.44,7.44,0,0,1-4,1.27C560.93,216.45,558.39,214.16,558.39,210.28Zm7.9-1.13c0-1.82-.79-2.93-2.4-2.93-1.39,0-2.59,1-2.83,2.93Z"/><path d="M571.33,204.37h2.28l.19,2.09h.1a4,4,0,0,1,3.34-2.38,3,3,0,0,1,1.34.24l-.48,2.4a3.82,3.82,0,0,0-1.22-.19c-.94,0-2.06.65-2.78,2.42v7.2h-2.76Z"/><rect x="493" y="193" width="100" height="30" rx="15" ry="15" style="fill:none;stroke:#000;stroke-miterlimit:10;stroke-width:2px"/><polyline points="463 208 583 88 643 88" style="fill:none;stroke:#000;stroke-miterlimit:10;stroke-width:4px;fill-rule:evenodd"/><line x1="523" y1="148" x2="824" y2="148" style="fill:none;stroke:#000;stroke-miterlimit:10;stroke-width:4px"/><circle cx="583" cy="88" r="15"/><circle cx="643" cy="88" r="15"/><circle cx="703" cy="148" r="15"/><circle cx="824" cy="148" r="15"/><circle cx="764" cy="88" r="15"/><polyline points="643 88 703.04 148.04 763.54 87.54 824 148" style="fill:none;stroke:#000;stroke-miterlimit:10;stroke-width:4px;fill-rule:evenodd"/><path d="M624.68,210.28c0-3.84,2.42-6.19,5-6.19a4.35,4.35,0,0,1,3.1,1.3l-.1-1.9v-4.27h2.76v16.95h-2.28l-.19-1.27h-.1a4.92,4.92,0,0,1-3.34,1.56C626.57,216.45,624.68,214.16,624.68,210.28Zm8,2.57v-5.5a3.52,3.52,0,0,0-2.4-1c-1.51,0-2.74,1.42-2.74,3.89s1,3.91,2.67,3.91A3.18,3.18,0,0,0,632.67,212.84Z"/><path d="M638.17,210.28c0-3.94,2.66-6.19,5.59-6.19s5.62,2.26,5.62,6.19-2.66,6.17-5.62,6.17S638.17,214.19,638.17,210.28Zm8.38,0c0-2.38-1.06-3.94-2.79-3.94S641,207.9,641,210.28s1,3.91,2.76,3.91S646.54,212.63,646.54,210.28Z"/><path d="M651.34,210.28a5.81,5.81,0,0,1,5.9-6.19,5.08,5.08,0,0,1,3.46,1.32l-1.34,1.8a2.89,2.89,0,0,0-2-.86c-1.9,0-3.22,1.56-3.22,3.94s1.3,3.91,3.14,3.91a3.93,3.93,0,0,0,2.42-1l1.13,1.82a5.89,5.89,0,0,1-3.84,1.44C653.81,216.45,651.34,214.19,651.34,210.28Z"/><path d="M663.08,211.76v-7.39h2.76v7c0,1.94.55,2.66,1.82,2.66,1,0,1.73-.48,2.62-1.63v-8.07H673v11.79h-2.26l-.22-1.73h-.07a4.8,4.8,0,0,1-3.79,2C664.18,216.45,663.08,214.74,663.08,211.76Z"/><path d="M675.37,214.81l1.3-1.78a5.25,5.25,0,0,0,3.26,1.32c1.27,0,1.87-.6,1.87-1.42,0-1-1.27-1.42-2.52-1.9-1.56-.58-3.31-1.46-3.31-3.43s1.66-3.53,4.3-3.53a6.36,6.36,0,0,1,3.91,1.42l-1.27,1.68a4.39,4.39,0,0,0-2.59-1c-1.18,0-1.73.55-1.73,1.3,0,.94,1.18,1.3,2.45,1.75,1.61.6,3.38,1.37,3.38,3.58,0,2-1.61,3.65-4.58,3.65A7.47,7.47,0,0,1,675.37,214.81Z"/><path d="M686.89,199.21h2.76v4.37l-.1,2.28a5.4,5.4,0,0,1,3.77-1.78c2.52,0,3.63,1.7,3.63,4.68v7.39h-2.76v-7c0-1.94-.55-2.66-1.85-2.66-1,0-1.7.5-2.69,1.46v8.23h-2.76Z"/><path d="M699.65,213c0-2.52,2.09-3.84,6.94-4.37,0-1.25-.55-2.3-2.16-2.3a6.72,6.72,0,0,0-3.31,1.15l-1-1.85a9.23,9.23,0,0,1,4.85-1.54c2.93,0,4.39,1.8,4.39,5.09v7h-2.28l-.19-1.29h-.1a5.74,5.74,0,0,1-3.65,1.58A3.3,3.3,0,0,1,699.65,213Zm6.94,0v-2.64c-3.22.41-4.27,1.25-4.27,2.42s.72,1.51,1.7,1.51A3.74,3.74,0,0,0,706.59,213Z"/><path d="M712.66,204.37h2.28l.19,2.09h.1a4,4,0,0,1,3.34-2.38,3,3,0,0,1,1.34.24l-.48,2.4a3.82,3.82,0,0,0-1.22-.19c-.94,0-2.06.65-2.78,2.42v7.2h-2.76Z"/><path d="M720.61,210.28c0-3.84,2.66-6.19,5.42-6.19,3.19,0,4.87,2.3,4.87,5.59a6.48,6.48,0,0,1-.12,1.34h-7.49a3.37,3.37,0,0,0,3.48,3.29,4.92,4.92,0,0,0,2.74-.86l.94,1.73a7.44,7.44,0,0,1-4,1.27C723.15,216.45,720.61,214.16,720.61,210.28Zm7.9-1.13c0-1.82-.79-2.93-2.4-2.93-1.39,0-2.59,1-2.83,2.93Z"/><path d="M733,209.1h5.71v2H733Z"/><path d="M739.76,204.37h2.81l1.87,6.12c.31,1.15.67,2.35,1,3.55h.1c.34-1.2.67-2.4,1-3.55l1.87-6.12h2.66l-4,11.79h-3.19Z"/><path d="M753.13,213.9h3.41v-10h-2.81v-1.73a10.28,10.28,0,0,0,3.53-1.25h2.06v13h3v2.26h-9.19Z"/><polygon points="770 223 623 223 608 208 623 193 770 193 770 223" style="fill:none;stroke:#000;stroke-linecap:round;stroke-linejoin:round;stroke-width:2px;fill-rule:evenodd"/><path d="M1223.68,150.28c0-3.84,2.42-6.19,5-6.19a4.35,4.35,0,0,1,3.1,1.3l-.1-1.9v-4.27h2.76v16.95h-2.28l-.19-1.27h-.1a4.92,4.92,0,0,1-3.34,1.56C1225.57,156.45,1223.68,154.16,1223.68,150.28Zm8,2.57v-5.5a3.52,3.52,0,0,0-2.4-1c-1.51,0-2.74,1.42-2.74,3.89s1,3.91,2.67,3.91A3.18,3.18,0,0,0,1231.67,152.84Z"/><path d="M1237.17,150.28c0-3.94,2.66-6.19,5.59-6.19s5.62,2.26,5.62,6.19-2.66,6.17-5.62,6.17S1237.17,154.19,1237.17,150.28Zm8.38,0c0-2.38-1.06-3.94-2.79-3.94s-2.76,1.56-2.76,3.94,1,3.91,2.76,3.91S1245.54,152.63,1245.54,150.28Z"/><path d="M1250.34,150.28a5.81,5.81,0,0,1,5.9-6.19,5.08,5.08,0,0,1,3.46,1.32l-1.34,1.8a2.89,2.89,0,0,0-2-.86c-1.9,0-3.22,1.56-3.22,3.94s1.3,3.91,3.14,3.91a3.93,3.93,0,0,0,2.42-1l1.13,1.82a5.89,5.89,0,0,1-3.84,1.44C1252.81,156.45,1250.34,154.19,1250.34,150.28Z"/><path d="M1262.08,151.76v-7.39h2.76v7c0,1.94.55,2.66,1.82,2.66,1,0,1.73-.48,2.62-1.63v-8.07H1272v11.79h-2.26l-.22-1.73h-.07a4.8,4.8,0,0,1-3.79,2C1263.18,156.45,1262.08,154.74,1262.08,151.76Z"/><path d="M1274.37,154.81l1.3-1.78a5.25,5.25,0,0,0,3.26,1.32c1.27,0,1.87-.6,1.87-1.42,0-1-1.27-1.42-2.52-1.9-1.56-.58-3.31-1.46-3.31-3.43s1.66-3.53,4.3-3.53a6.36,6.36,0,0,1,3.91,1.42l-1.27,1.68a4.39,4.39,0,0,0-2.59-1c-1.18,0-1.73.55-1.73,1.3,0,.94,1.18,1.3,2.45,1.75,1.61.6,3.38,1.37,3.38,3.58,0,2-1.61,3.65-4.58,3.65A7.47,7.47,0,0,1,1274.37,154.81Z"/><path d="M1285.89,139.21h2.76v4.37l-.1,2.28a5.4,5.4,0,0,1,3.77-1.78c2.52,0,3.63,1.7,3.63,4.68v7.39h-2.76v-7c0-1.94-.55-2.66-1.85-2.66-1,0-1.7.5-2.69,1.46v8.23h-2.76Z"/><path d="M1298.65,153c0-2.52,2.09-3.84,6.94-4.37,0-1.25-.55-2.3-2.16-2.3a6.72,6.72,0,0,0-3.31,1.15l-1-1.85a9.23,9.23,0,0,1,4.85-1.54c2.93,0,4.39,1.8,4.39,5.09v7h-2.28l-.19-1.29h-.1a5.74,5.74,0,0,1-3.65,1.58A3.3,3.3,0,0,1,1298.65,153Zm6.94,0v-2.64c-3.22.41-4.27,1.25-4.27,2.42s.72,1.51,1.7,1.51A3.74,3.74,0,0,0,1305.59,153Z"/><path d="M1311.66,144.37h2.28l.19,2.09h.1a4,4,0,0,1,3.34-2.38,3,3,0,0,1,1.34.24l-.48,2.4a3.82,3.82,0,0,0-1.22-.19c-.94,0-2.06.65-2.78,2.42v7.2h-2.76Z"/><path d="M1319.61,150.28c0-3.84,2.66-6.19,5.42-6.19,3.19,0,4.87,2.3,4.87,5.59a6.48,6.48,0,0,1-.12,1.34h-7.49a3.37,3.37,0,0,0,3.48,3.29,4.92,4.92,0,0,0,2.74-.86l.94,1.73a7.44,7.44,0,0,1-4,1.27C1322.15,156.45,1319.61,154.16,1319.61,150.28Zm7.9-1.13c0-1.82-.79-2.93-2.4-2.93-1.39,0-2.59,1-2.83,2.93Z"/><path d="M1332,149.1h5.71v2H1332Z"/><path d="M1338.76,144.37h2.81l1.87,6.12c.31,1.15.67,2.35,1,3.55h.1c.34-1.2.67-2.4,1-3.55l1.87-6.12h2.66l-4,11.79h-3.19Z"/><path d="M1351.26,154.55c4.25-4.1,6.91-6.79,6.91-9.12a2.37,2.37,0,0,0-2.52-2.64,4.22,4.22,0,0,0-3,1.71l-1.54-1.54a6.25,6.25,0,0,1,4.87-2.35,4.46,4.46,0,0,1,4.82,4.68c0,2.71-2.52,5.5-5.54,8.69.79-.07,1.8-.17,2.54-.17h3.74v2.35h-10.32Z"/><polygon points="1369 163 1222 163 1207 148 1222 133 1369 133 1369 163" style="fill:none;stroke:#000;stroke-linecap:round;stroke-linejoin:round;stroke-width:2px;fill-rule:evenodd"/><path d="M560.81,32.17V26.56h-1.68V24.49l1.82-.12.34-3.22h2.3v3.22h3v2.18h-3v5.62c0,1.39.53,2.06,1.66,2.06a3.37,3.37,0,0,0,1.22-.26l.48,2a7.54,7.54,0,0,1-2.4.43C561.81,36.45,560.81,34.72,560.81,32.17Z"/><path d="M568.75,20.75a1.71,1.71,0,1,1,1.7,1.56A1.58,1.58,0,0,1,568.75,20.75Zm.31,3.62h2.76V36.16h-2.76Z"/><path d="M574.58,30.28a5.81,5.81,0,0,1,5.9-6.19,5.08,5.08,0,0,1,3.46,1.32l-1.34,1.8a2.88,2.88,0,0,0-2-.86c-1.9,0-3.22,1.56-3.22,3.94s1.3,3.91,3.14,3.91a3.93,3.93,0,0,0,2.42-1L584.11,35a5.89,5.89,0,0,1-3.84,1.44C577.05,36.45,574.58,34.19,574.58,30.28Z"/><path d="M586.44,19.21h2.71V29.8h.07l4.37-5.43h3l-4,4.8,4.44,7h-3L591,31l-1.85,2.11v3h-2.71Z"/><path d="M597.64,30.28c0-3.84,2.67-6.19,5.43-6.19,3.19,0,4.87,2.3,4.87,5.59a6.43,6.43,0,0,1-.12,1.34h-7.49a3.37,3.37,0,0,0,3.48,3.29,4.92,4.92,0,0,0,2.74-.86l.94,1.73a7.45,7.45,0,0,1-4,1.27C600.19,36.45,597.64,34.16,597.64,30.28Zm7.9-1.13c0-1.82-.79-2.93-2.4-2.93-1.39,0-2.59,1-2.83,2.93Z"/><path d="M610.75,32.17V26.56h-1.68V24.49l1.82-.12.34-3.22h2.3v3.22h3v2.18h-3v5.62c0,1.39.53,2.06,1.66,2.06a3.37,3.37,0,0,0,1.22-.26l.48,2a7.53,7.53,0,0,1-2.4.43C611.76,36.45,610.75,34.72,610.75,32.17Z"/><path d="M617.59,34.81,618.88,33a5.25,5.25,0,0,0,3.26,1.32c1.27,0,1.87-.6,1.87-1.42,0-1-1.27-1.42-2.52-1.9-1.56-.58-3.31-1.46-3.31-3.43s1.66-3.53,4.3-3.53a6.37,6.37,0,0,1,3.91,1.42l-1.27,1.68a4.39,4.39,0,0,0-2.59-1c-1.18,0-1.73.55-1.73,1.3,0,.94,1.18,1.3,2.45,1.75,1.61.6,3.38,1.37,3.38,3.58,0,2-1.61,3.65-4.58,3.65A7.46,7.46,0,0,1,617.59,34.81Z"/><path d="M633.24,19.12h1.87L629.52,40h-1.87Z"/><path d="M637.61,20.46h4.2c4.8,0,7.63,2.59,7.63,7.78s-2.83,7.92-7.49,7.92h-4.34Zm4,13.44c3.17,0,5-1.8,5-5.66s-1.8-5.52-5-5.52h-1.22V33.9Z"/><path d="M652.61,20.46h3.14l2.78,7.68c.34,1,.67,2,1,3.07h.1c.34-1,.65-2.09,1-3.07l2.71-7.68h3.17v15.7h-2.57V29c0-1.46.22-3.55.36-5h-.1l-1.27,3.65-2.57,7.06H658.7l-2.59-7.06L654.86,24h-.1c.12,1.44.36,3.53.36,5v7.18h-2.52Z"/><path d="M669.5,29.1h5.71v2H669.5Z"/><path d="M676.8,34.29l1.32-1.78a5,5,0,0,0,3.62,1.68c1.66,0,2.81-.86,2.81-2.3s-1-2.59-4.49-2.59v-2c3,0,4-1,4-2.45a2,2,0,0,0-2.26-2,4.45,4.45,0,0,0-3.07,1.44l-1.42-1.7a6.74,6.74,0,0,1,4.58-1.92c2.93,0,4.95,1.44,4.95,4a3.67,3.67,0,0,1-2.66,3.5v.1A3.88,3.88,0,0,1,687.33,32c0,2.78-2.42,4.42-5.35,4.42A6.64,6.64,0,0,1,676.8,34.29Z"/><rect x="545" y="13" width="158" height="30" rx="15" ry="15" style="fill:none;stroke:#000;stroke-miterlimit:10;stroke-width:2px"/></svg>