<svg id="Layer_1" data-name="Layer 1" xmlns="http://www.w3.org/2000/svg" viewBox="0 0 1400 389"><title>ccd-hotfix</title><line x1="818" y1="25" x2="818" y2="185" style="fill:none;stroke:red;stroke-miterlimit:10;stroke-width:2px"/><line x1="758" y1="75" x2="758" y2="125" style="fill:none;stroke:red;stroke-miterlimit:10;stroke-width:2px"/><line x1="-321" y1="305.5" x2="755" y2="305.5" style="fill:none;stroke:#000;stroke-miterlimit:10;stroke-width:4px"/><circle cx="97" cy="305" r="15"/><circle cx="155" cy="365" r="15"/><circle cx="216" cy="365" r="15"/><circle cx="275" cy="305" r="15"/><circle cx="37" cy="365" r="15"/><polyline points="-81.59 305.5 -22.05 365.05 37 365.05 97.28 304.77 157.25 364.75 215 364.75 274.87 304.87 335 365 509 365" style="fill:none;stroke:#000;stroke-miterlimit:10;stroke-width:4px;fill-rule:evenodd"/><path d="M987.4,301.37h2.28l.19,1.61h.1a5,5,0,0,1,3.6-1.9,3.21,3.21,0,0,1,3.26,2.11c1.13-1.2,2.3-2.11,3.79-2.11,2.5,0,3.65,1.7,3.65,4.68v7.39h-2.78v-7c0-1.94-.58-2.66-1.8-2.66a3.66,3.66,0,0,0-2.47,1.46v8.23h-2.76v-7c0-1.94-.58-2.66-1.82-2.66a3.71,3.71,0,0,0-2.47,1.46v8.23H987.4Z"/><path d="M1007,310c0-2.52,2.09-3.84,6.94-4.37,0-1.25-.55-2.3-2.16-2.3a6.71,6.71,0,0,0-3.31,1.15l-1-1.85a9.22,9.22,0,0,1,4.85-1.54c2.93,0,4.39,1.8,4.39,5.09v7h-2.28l-.19-1.29h-.1a5.74,5.74,0,0,1-3.65,1.58A3.29,3.29,0,0,1,1007,310Zm6.94,0v-2.64c-3.22.41-4.27,1.25-4.27,2.42s.72,1.51,1.71,1.51A3.75,3.75,0,0,0,1013.94,310Z"/><path d="M1018.84,311.81l1.3-1.78a5.25,5.25,0,0,0,3.26,1.32c1.27,0,1.87-.6,1.87-1.42,0-1-1.27-1.42-2.52-1.9-1.56-.58-3.31-1.46-3.31-3.43s1.66-3.53,4.3-3.53a6.36,6.36,0,0,1,3.91,1.42l-1.27,1.68a4.39,4.39,0,0,0-2.59-1c-1.18,0-1.73.55-1.73,1.3,0,.94,1.18,1.3,2.45,1.75,1.61.6,3.38,1.37,3.38,3.58,0,2-1.61,3.65-4.58,3.65A7.47,7.47,0,0,1,1018.84,311.81Z"/><path d="M1030.29,309.17v-5.62h-1.68v-2.06l1.82-.12.34-3.22h2.3v3.22h3v2.18h-3v5.62c0,1.39.53,2.06,1.66,2.06A3.37,3.37,0,0,0,1036,311l.48,2a7.53,7.53,0,0,1-2.4.43C1031.29,313.45,1030.29,311.72,1030.29,309.17Z"/><path d="M1037.39,307.28c0-3.84,2.67-6.19,5.42-6.19,3.19,0,4.87,2.3,4.87,5.59a6.42,6.42,0,0,1-.12,1.34h-7.49a3.37,3.37,0,0,0,3.48,3.29,4.93,4.93,0,0,0,2.74-.86l.94,1.73a7.44,7.44,0,0,1-4,1.27C1039.93,313.45,1037.39,311.16,1037.39,307.28Zm7.9-1.13c0-1.82-.79-2.93-2.4-2.93-1.39,0-2.59,1-2.83,2.93Z"/><path d="M1050.33,301.37h2.28l.19,2.09h.1a4,4,0,0,1,3.34-2.38,3,3,0,0,1,1.34.24l-.48,2.4a3.82,3.82,0,0,0-1.22-.19c-.94,0-2.06.65-2.78,2.42v7.2h-2.76Z"/><rect x="972" y="290" width="100" height="30" rx="15" ry="15" style="fill:none;stroke:#000;stroke-miterlimit:10;stroke-width:2px"/><polyline points="97 305 217 185 277 185" style="fill:none;stroke:#000;stroke-miterlimit:10;stroke-width:4px;fill-rule:evenodd"/><line x1="157" y1="245" x2="638" y2="245" style="fill:none;stroke:#000;stroke-miterlimit:10;stroke-width:4px"/><circle cx="216" cy="185" r="15"/><circle cx="275" cy="185" r="15"/><circle cx="337" cy="245" r="15"/><circle cx="337" cy="365" r="15"/><circle cx="397" cy="365" r="15"/><circle cx="457" cy="365" r="15"/><circle cx="517" cy="365" r="15"/><circle cx="458" cy="245" r="15"/><circle cx="638" cy="245" r="15"/><circle cx="638" cy="365" r="15"/><circle cx="698" cy="365" r="15"/><circle cx="518" cy="185" r="15"/><circle cx="578" cy="185" r="15"/><circle cx="818" cy="185" r="15"/><circle cx="998" cy="185" r="15"/><circle cx="878" cy="125" r="15"/><circle cx="938" cy="125" r="15"/><circle cx="758" cy="125" r="15"/><circle cx="578" cy="306" r="15"/><circle cx="757" cy="306" r="15"/><circle cx="398" cy="185" r="15"/><polyline points="277 185 337.04 245.04 397.54 184.54 458 245 518 185 578 185 638 245 758 125 817.83 184.83" style="fill:none;stroke:#000;stroke-miterlimit:10;stroke-width:4px;fill-rule:evenodd"/><polyline points="517 365 576.63 305.37 636.13 364.87 698 364.87 757.46 305.42" style="fill:none;stroke:#000;stroke-miterlimit:10;stroke-width:4px;fill-rule:evenodd"/><line x1="697.98" y1="185.02" x2="998" y2="185.02" style="fill:none;stroke:#000;stroke-miterlimit:10;stroke-width:4px"/><polyline points="817.83 184.83 877.83 124.83 938 124.83 998.08 184.92" style="fill:none;stroke:#000;stroke-miterlimit:10;stroke-width:4px;fill-rule:evenodd"/><path d="M219,216.72h-5.28L212.49,221h-2.83l5.11-15.7H218l5.11,15.7h-2.93Zm-.62-2.18-.55-1.92c-.5-1.66-1-3.46-1.42-5.18h-.1c-.43,1.75-.89,3.53-1.39,5.18l-.55,1.92Z"/><path d="M336.61,340.55H331.5L329.32,345h-2.86l8.4-15.7h3.07l1.68,15.7h-2.69Zm-.14-2-.17-2.38c-.1-1.61-.22-3.17-.29-4.87h-.1c-.77,1.7-1.46,3.24-2.28,4.87l-1.18,2.38Z"/><path d="M345,328.45h2.52l-1,2.83-1.82,4.22H343Z"/><path d="M391,329.27h4.51c3.07,0,5.06,1.15,5.06,3.53a4.22,4.22,0,0,1-3.46,3.91l0,.1c1.68.41,2.79,1.39,2.79,3.07,0,3.6-2.93,5.09-6.65,5.09h-5.35Zm2.23,13.68c2.59,0,4.15-.94,4.15-3,0-1.44-1.06-2.33-3-2.33h-2.42l-1.06,5.28Zm1-7.1c2.57,0,3.74-1.06,3.74-2.64,0-1.22-.94-1.92-3-1.92h-1.78l-.94,4.56Z"/><path d="M405.77,328.45h2.52l-1,2.83-1.82,4.22h-1.7Z"/><path d="M448.86,338.8c0-5.18,3.43-9.82,8.23-9.82a4.53,4.53,0,0,1,4,2.4l-1.78,1.37a2.75,2.75,0,0,0-2.38-1.54c-3.19,0-5.45,3.74-5.45,7.39,0,2.64,1.08,4.42,3.62,4.42a4.7,4.7,0,0,0,3-1.3l1.13,1.66a7,7,0,0,1-4.63,1.87C451,345.25,448.86,342.73,448.86,338.8Z"/><path d="M465.35,328.45h2.52l-1,2.83-1.82,4.22h-1.7Z"/><path d="M510.84,329.27H514c4.37,0,6.79,2.16,6.79,6.14,0,6-3.38,9.55-8.54,9.55h-4.56Zm1.39,13.61c3.53,0,6-2.66,6-7.3,0-2.78-1.56-4.22-4.22-4.22h-1l-2.28,11.52Z"/><path d="M525.89,328.45h2.52l-1,2.83-1.82,4.22h-1.7Z"/><path d="M270.23,205.27h5c3.24,0,5.62,1,5.62,3.86a3.54,3.54,0,0,1-2.18,3.41v.1a3.59,3.59,0,0,1,3,3.72c0,3.14-2.57,4.61-6,4.61h-5.42Zm4.78,6.48c2.18,0,3.12-.86,3.12-2.21,0-1.54-1-2.11-3.07-2.11h-2v4.32Zm.36,7.06c2.3,0,3.6-.84,3.6-2.59s-1.25-2.38-3.6-2.38H273v5Z"/><path d="M392.67,213.16c0-5.14,3.22-8.18,7.18-8.18a6.23,6.23,0,0,1,4.54,2l-1.49,1.8a4.1,4.1,0,0,0-3-1.37c-2.57,0-4.39,2.16-4.39,5.69s1.68,5.74,4.32,5.74a4.47,4.47,0,0,0,3.36-1.61l1.49,1.75a6.33,6.33,0,0,1-4.94,2.28C395.79,221.25,392.67,218.37,392.67,213.16Z"/><path d="M512.9,205.27h4.2c4.8,0,7.63,2.59,7.63,7.78S521.9,221,517.24,221H512.9Zm4,13.44c3.17,0,5-1.8,5-5.67s-1.8-5.52-5-5.52h-1.22v11.19Z"/><path d="M573.94,205.27h9.46v2.35h-6.67v4h5.64V214h-5.64v4.63h6.91V221h-9.7Z"/><path d="M753.28,145.27h9.48v2.35h-6.7v4.44h5.71v2.35h-5.71V161h-2.78Z"/><path d="M872,153.16c0-5.14,3.24-8.18,7.42-8.18a6.46,6.46,0,0,1,4.75,2l-1.49,1.8a4.25,4.25,0,0,0-3.17-1.37c-2.78,0-4.66,2.16-4.66,5.69s1.66,5.74,4.8,5.74a3.47,3.47,0,0,0,2.26-.7v-3.38h-3v-2.28h5.47v6.91a7.19,7.19,0,0,1-5,1.87C875.19,161.25,872,158.37,872,153.16Z"/><path d="M932.44,145.27h2.78v6.31h6.36v-6.31h2.78V161h-2.78v-7h-6.36v7h-2.78Z"/><path d="M633.22,329.27h9l-.43,2.18h-6.43l-.91,4.63h5.45l-.43,2.18H634l-1.34,6.7H630.1Z"/><path d="M645.51,328.45H648l-1,2.83-1.82,4.22h-1.7Z"/><path d="M689.37,338.8c0-5.21,3.43-9.82,8.47-9.82a4.59,4.59,0,0,1,4.15,2.4l-1.78,1.37a2.83,2.83,0,0,0-2.52-1.54c-3.41,0-5.69,3.74-5.69,7.39,0,2.59,1.06,4.44,3.79,4.44a3.46,3.46,0,0,0,2.18-.74l.77-3.7h-2.9l.41-2.11h5.21L700,343.64a7.43,7.43,0,0,1-4.68,1.61C691.55,345.25,689.37,342.78,689.37,338.8Z"/><path d="M706.84,328.45h2.52l-1,2.83-1.82,4.22h-1.7Z"/><path d="M1218.81,189.17v-5.62h-1.68v-2.06l1.82-.12.34-3.22h2.3v3.22h3v2.18h-3v5.62c0,1.39.53,2.06,1.66,2.06a3.37,3.37,0,0,0,1.22-.26l.48,2a7.54,7.54,0,0,1-2.4.43C1219.81,193.45,1218.81,191.72,1218.81,189.17Z"/><path d="M1226.75,177.75a1.71,1.71,0,1,1,1.7,1.56A1.58,1.58,0,0,1,1226.75,177.75Zm.31,3.62h2.76v11.79h-2.76Z"/><path d="M1232.58,187.28a5.81,5.81,0,0,1,5.9-6.19,5.08,5.08,0,0,1,3.46,1.32l-1.34,1.8a2.88,2.88,0,0,0-2-.86c-1.9,0-3.22,1.56-3.22,3.94s1.3,3.91,3.14,3.91a3.93,3.93,0,0,0,2.42-1l1.13,1.82a5.89,5.89,0,0,1-3.84,1.44C1235.05,193.45,1232.58,191.19,1232.58,187.28Z"/><path d="M1244.44,176.21h2.71V186.8h.07l4.37-5.43h3l-4,4.8,4.44,7h-3l-3-5.11-1.85,2.11v3h-2.71Z"/><path d="M1255.64,187.28c0-3.84,2.67-6.19,5.43-6.19,3.19,0,4.87,2.3,4.87,5.59a6.43,6.43,0,0,1-.12,1.34h-7.49a3.37,3.37,0,0,0,3.48,3.29,4.92,4.92,0,0,0,2.74-.86l.94,1.73a7.45,7.45,0,0,1-4,1.27C1258.19,193.45,1255.64,191.16,1255.64,187.28Zm7.9-1.13c0-1.82-.79-2.93-2.4-2.93-1.39,0-2.59,1-2.83,2.93Z"/><path d="M1268.75,189.17v-5.62h-1.68v-2.06l1.82-.12.34-3.22h2.3v3.22h3v2.18h-3v5.62c0,1.39.53,2.06,1.66,2.06a3.37,3.37,0,0,0,1.22-.26l.48,2a7.53,7.53,0,0,1-2.4.43C1269.76,193.45,1268.75,191.72,1268.75,189.17Z"/><path d="M1275.59,191.81l1.29-1.78a5.25,5.25,0,0,0,3.26,1.32c1.27,0,1.87-.6,1.87-1.42,0-1-1.27-1.42-2.52-1.9-1.56-.58-3.31-1.46-3.31-3.43s1.66-3.53,4.3-3.53a6.37,6.37,0,0,1,3.91,1.42l-1.27,1.68a4.39,4.39,0,0,0-2.59-1c-1.18,0-1.73.55-1.73,1.3,0,.94,1.18,1.3,2.45,1.75,1.61.6,3.38,1.37,3.38,3.58,0,2-1.61,3.65-4.58,3.65A7.46,7.46,0,0,1,1275.59,191.81Z"/><path d="M1291.24,176.12h1.87L1287.52,197h-1.87Z"/><path d="M1304.17,193.16l-3.38-6.14h-2.4v6.14h-2.78v-15.7h5.3c3.26,0,5.76,1.15,5.76,4.66a4.39,4.39,0,0,1-3.12,4.49l3.74,6.55Zm-5.79-8.35h2.23c2.14,0,3.31-.91,3.31-2.69s-1.18-2.42-3.31-2.42h-2.23Z"/><path d="M1309.81,177.46h9.48v2.35h-6.7v4.44h5.71v2.35h-5.71v6.55h-2.79Z"/><path d="M1321,185.36c0-5.14,3.22-8.18,7.18-8.18a6.23,6.23,0,0,1,4.54,2l-1.49,1.8a4.09,4.09,0,0,0-3-1.37c-2.57,0-4.39,2.16-4.39,5.69s1.68,5.74,4.32,5.74a4.47,4.47,0,0,0,3.36-1.61l1.49,1.75a6.33,6.33,0,0,1-4.94,2.28C1324.12,193.45,1321,190.56,1321,185.36Z"/><path d="M1333.91,186.1h5.71v2h-5.71Z"/><path d="M1341.54,191.55c4.25-4.1,6.91-6.79,6.91-9.12a2.37,2.37,0,0,0-2.52-2.64,4.22,4.22,0,0,0-3,1.71l-1.54-1.54a6.25,6.25,0,0,1,4.87-2.35,4.46,4.46,0,0,1,4.82,4.68c0,2.71-2.52,5.5-5.54,8.69.79-.07,1.8-.17,2.54-.17h3.74v2.35h-10.32Z"/><rect x="1203" y="170" width="164" height="30" rx="15" ry="15" style="fill:none;stroke:#000;stroke-miterlimit:10;stroke-width:2px"/><path d="M1043.81,189.17v-5.62h-1.68v-2.06l1.82-.12.34-3.22h2.3v3.22h3v2.18h-3v5.62c0,1.39.53,2.06,1.66,2.06a3.37,3.37,0,0,0,1.22-.26l.48,2a7.54,7.54,0,0,1-2.4.43C1044.81,193.45,1043.81,191.72,1043.81,189.17Z"/><path d="M1051.75,177.75a1.71,1.71,0,1,1,1.7,1.56A1.58,1.58,0,0,1,1051.75,177.75Zm.31,3.62h2.76v11.79h-2.76Z"/><path d="M1057.58,187.28a5.81,5.81,0,0,1,5.9-6.19,5.08,5.08,0,0,1,3.46,1.32l-1.34,1.8a2.88,2.88,0,0,0-2-.86c-1.9,0-3.22,1.56-3.22,3.94s1.3,3.91,3.14,3.91a3.93,3.93,0,0,0,2.42-1l1.13,1.82a5.89,5.89,0,0,1-3.84,1.44C1060.05,193.45,1057.58,191.19,1057.58,187.28Z"/><path d="M1069.44,176.21h2.71V186.8h.07l4.37-5.43h3l-4,4.8,4.44,7h-3l-3-5.11-1.85,2.11v3h-2.71Z"/><path d="M1080.64,187.28c0-3.84,2.67-6.19,5.43-6.19,3.19,0,4.87,2.3,4.87,5.59a6.43,6.43,0,0,1-.12,1.34h-7.49a3.37,3.37,0,0,0,3.48,3.29,4.92,4.92,0,0,0,2.74-.86l.94,1.73a7.45,7.45,0,0,1-4,1.27C1083.19,193.45,1080.64,191.16,1080.64,187.28Zm7.9-1.13c0-1.82-.79-2.93-2.4-2.93-1.39,0-2.59,1-2.83,2.93Z"/><path d="M1093.75,189.17v-5.62h-1.68v-2.06l1.82-.12.34-3.22h2.3v3.22h3v2.18h-3v5.62c0,1.39.53,2.06,1.66,2.06a3.37,3.37,0,0,0,1.22-.26l.48,2a7.53,7.53,0,0,1-2.4.43C1094.76,193.45,1093.75,191.72,1093.75,189.17Z"/><path d="M1100.59,191.81l1.29-1.78a5.25,5.25,0,0,0,3.26,1.32c1.27,0,1.87-.6,1.87-1.42,0-1-1.27-1.42-2.52-1.9-1.56-.58-3.31-1.46-3.31-3.43s1.66-3.53,4.3-3.53a6.37,6.37,0,0,1,3.91,1.42l-1.27,1.68a4.39,4.39,0,0,0-2.59-1c-1.18,0-1.73.55-1.73,1.3,0,.94,1.18,1.3,2.45,1.75,1.61.6,3.38,1.37,3.38,3.58,0,2-1.61,3.65-4.58,3.65A7.46,7.46,0,0,1,1100.59,191.81Z"/><path d="M1116.24,176.12h1.87L1112.52,197h-1.87Z"/><path d="M1120.61,177.46h4.2c4.8,0,7.63,2.59,7.63,7.78s-2.83,7.92-7.49,7.92h-4.34Zm4,13.44c3.17,0,5-1.8,5-5.66s-1.8-5.52-5-5.52h-1.22V190.9Z"/><path d="M1135.61,177.46h3.14l2.78,7.68c.34,1,.67,2,1,3.07h.1c.34-1,.65-2.09,1-3.07l2.71-7.68h3.17v15.7h-2.57V186c0-1.46.22-3.55.36-5h-.1l-1.27,3.65-2.57,7.06h-1.66l-2.59-7.06-1.25-3.65h-.1c.12,1.44.36,3.53.36,5v7.18h-2.52Z"/><path d="M1152.5,186.1h5.71v2h-5.71Z"/><path d="M1161.84,190a3.35,3.35,0,0,0,2.45,1.15c1.92,0,3.48-1.42,3.6-5.64a4.6,4.6,0,0,1-3.34,1.78c-2.62,0-4.44-1.54-4.44-4.73a4.74,4.74,0,0,1,4.8-5c3,0,5.52,2.3,5.52,7.44,0,5.93-2.86,8.4-6,8.4a5.48,5.48,0,0,1-4.08-1.73Zm6-6.48c-.29-2.69-1.39-3.84-2.88-3.84-1.25,0-2.28,1-2.28,2.88s.89,2.74,2.42,2.74A3.42,3.42,0,0,0,1167.81,183.56Z"/><rect x="1028" y="170" width="160" height="30" rx="15" ry="15" style="fill:none;stroke:#000;stroke-miterlimit:10;stroke-width:2px"/><path d="M1124.68,147.28c0-3.84,2.42-6.19,5-6.19a4.35,4.35,0,0,1,3.1,1.3l-.1-1.9v-4.27h2.76v16.95h-2.28l-.19-1.27h-.1a4.92,4.92,0,0,1-3.34,1.56C1126.57,153.45,1124.68,151.16,1124.68,147.28Zm8,2.57v-5.5a3.52,3.52,0,0,0-2.4-1c-1.51,0-2.74,1.42-2.74,3.89s1,3.91,2.67,3.91A3.18,3.18,0,0,0,1132.67,149.84Z"/><path d="M1138.17,147.28c0-3.94,2.66-6.19,5.59-6.19s5.62,2.26,5.62,6.19-2.66,6.17-5.62,6.17S1138.17,151.19,1138.17,147.28Zm8.38,0c0-2.38-1.06-3.94-2.79-3.94s-2.76,1.56-2.76,3.94,1,3.91,2.76,3.91S1146.54,149.63,1146.54,147.28Z"/><path d="M1151.34,147.28a5.81,5.81,0,0,1,5.9-6.19,5.08,5.08,0,0,1,3.46,1.32l-1.34,1.8a2.89,2.89,0,0,0-2-.86c-1.9,0-3.22,1.56-3.22,3.94s1.3,3.91,3.14,3.91a3.93,3.93,0,0,0,2.42-1l1.13,1.82a5.89,5.89,0,0,1-3.84,1.44C1153.81,153.45,1151.34,151.19,1151.34,147.28Z"/><path d="M1163.08,148.76v-7.39h2.76v7c0,1.94.55,2.66,1.82,2.66,1,0,1.73-.48,2.62-1.63v-8.07H1173v11.79h-2.26l-.22-1.73h-.07a4.8,4.8,0,0,1-3.79,2C1164.18,153.45,1163.08,151.74,1163.08,148.76Z"/><path d="M1175.37,151.81l1.3-1.78a5.25,5.25,0,0,0,3.26,1.32c1.27,0,1.87-.6,1.87-1.42,0-1-1.27-1.42-2.52-1.9-1.56-.58-3.31-1.46-3.31-3.43s1.66-3.53,4.3-3.53a6.36,6.36,0,0,1,3.91,1.42l-1.27,1.68a4.39,4.39,0,0,0-2.59-1c-1.18,0-1.73.55-1.73,1.3,0,.94,1.18,1.3,2.45,1.75,1.61.6,3.38,1.37,3.38,3.58,0,2-1.61,3.65-4.58,3.65A7.47,7.47,0,0,1,1175.37,151.81Z"/><path d="M1186.89,136.21h2.76v4.37l-.1,2.28a5.4,5.4,0,0,1,3.77-1.78c2.52,0,3.63,1.7,3.63,4.68v7.39h-2.76v-7c0-1.94-.55-2.66-1.85-2.66-1,0-1.7.5-2.69,1.46v8.23h-2.76Z"/><path d="M1199.65,150c0-2.52,2.09-3.84,6.94-4.37,0-1.25-.55-2.3-2.16-2.3a6.72,6.72,0,0,0-3.31,1.15l-1-1.85a9.23,9.23,0,0,1,4.85-1.54c2.93,0,4.39,1.8,4.39,5.09v7h-2.28l-.19-1.29h-.1a5.74,5.74,0,0,1-3.65,1.58A3.3,3.3,0,0,1,1199.65,150Zm6.94,0v-2.64c-3.22.41-4.27,1.25-4.27,2.42s.72,1.51,1.7,1.51A3.74,3.74,0,0,0,1206.59,150Z"/><path d="M1212.66,141.37h2.28l.19,2.09h.1a4,4,0,0,1,3.34-2.38,3,3,0,0,1,1.34.24l-.48,2.4a3.82,3.82,0,0,0-1.22-.19c-.94,0-2.06.65-2.78,2.42v7.2h-2.76Z"/><path d="M1220.61,147.28c0-3.84,2.66-6.19,5.42-6.19,3.19,0,4.87,2.3,4.87,5.59a6.48,6.48,0,0,1-.12,1.34h-7.49a3.37,3.37,0,0,0,3.48,3.29,4.92,4.92,0,0,0,2.74-.86l.94,1.73a7.44,7.44,0,0,1-4,1.27C1223.15,153.45,1220.61,151.16,1220.61,147.28Zm7.9-1.13c0-1.82-.79-2.93-2.4-2.93-1.39,0-2.59,1-2.83,2.93Z"/><path d="M1233,146.1h5.71v2H1233Z"/><path d="M1239.76,141.37h2.81l1.87,6.12c.31,1.15.67,2.35,1,3.55h.1c.34-1.2.67-2.4,1-3.55l1.87-6.12h2.66l-4,11.79h-3.19Z"/><path d="M1251.92,151.33l1.27-1.78a5.12,5.12,0,0,0,3.58,1.63,2.77,2.77,0,0,0,3-2.93,2.62,2.62,0,0,0-2.81-2.86,3.92,3.92,0,0,0-2.45.86l-1.32-.84.46-7.54h8.16v2.33H1256l-.31,3.7a4.32,4.32,0,0,1,2-.5c2.62,0,4.8,1.49,4.8,4.78a5.15,5.15,0,0,1-5.38,5.26A7,7,0,0,1,1251.92,151.33Z"/><polygon points="1270 160 1123 160 1108 145 1123 130 1270 130 1270 160" style="fill:none;stroke:#000;stroke-linecap:round;stroke-linejoin:round;stroke-width:2px;fill-rule:evenodd"/><path d="M1043.93,141.37h2.81l1.87,6.12c.31,1.15.67,2.35,1,3.55h.1c.34-1.2.67-2.4,1-3.55l1.87-6.12h2.66l-4,11.79H1048Z"/><path d="M1057.3,150.9h3.41v-10h-2.81v-1.73a10.27,10.27,0,0,0,3.53-1.25h2.06v13h3v2.26h-9.19Z"/><path d="M1069.35,151.57a1.8,1.8,0,0,1,1.8-1.87,1.88,1.88,0,0,1,0,3.75A1.8,1.8,0,0,1,1069.35,151.57Z"/><path d="M1076.21,150.9h3.41v-10h-2.81v-1.73a10.27,10.27,0,0,0,3.53-1.25h2.06v13h3v2.26h-9.19Z"/><polygon points="1093 160 1043 160 1028 145 1043 130 1093 130 1093 160" style="fill:none;stroke:#000;stroke-linecap:round;stroke-linejoin:round;stroke-width:2px;fill-rule:evenodd"/><path d="M683.93,241.37h2.81l1.87,6.12c.31,1.15.67,2.35,1,3.55h.1c.34-1.2.67-2.4,1-3.55l1.87-6.12h2.66l-4,11.79H688Z"/><path d="M697.3,250.9h3.41v-10H697.9v-1.73a10.27,10.27,0,0,0,3.53-1.25h2.06v13h3v2.26H697.3Z"/><path d="M709.35,251.57a1.8,1.8,0,0,1,1.8-1.87,1.88,1.88,0,0,1,0,3.75A1.8,1.8,0,0,1,709.35,251.57Z"/><path d="M715.4,245.45c0-5.16,2-7.85,5.18-7.85s5.18,2.71,5.18,7.85-2,8-5.18,8S715.4,250.61,715.4,245.45Zm7.73,0c0-4.32-1.06-5.69-2.54-5.69s-2.54,1.37-2.54,5.69,1.08,5.83,2.54,5.83S723.13,249.77,723.13,245.45Z"/><polygon points="733 260 683 260 668 245 683 230 733 230 733 260" style="fill:none;stroke:#000;stroke-linecap:round;stroke-linejoin:round;stroke-width:2px;fill-rule:evenodd"/><path d="M802.81,309.17v-5.62h-1.68v-2.06l1.82-.12.34-3.22h2.3v3.22h3v2.18h-3v5.62c0,1.39.53,2.06,1.66,2.06a3.37,3.37,0,0,0,1.22-.26l.48,2a7.54,7.54,0,0,1-2.4.43C803.81,313.45,802.81,311.72,802.81,309.17Z"/><path d="M810.75,297.75a1.71,1.71,0,1,1,1.7,1.56A1.58,1.58,0,0,1,810.75,297.75Zm.31,3.62h2.76v11.79h-2.76Z"/><path d="M816.58,307.28a5.81,5.81,0,0,1,5.9-6.19,5.08,5.08,0,0,1,3.46,1.32l-1.34,1.8a2.88,2.88,0,0,0-2-.86c-1.9,0-3.22,1.56-3.22,3.94s1.3,3.91,3.14,3.91a3.93,3.93,0,0,0,2.42-1l1.13,1.82a5.89,5.89,0,0,1-3.84,1.44C819.05,313.45,816.58,311.19,816.58,307.28Z"/><path d="M828.44,296.21h2.71V306.8h.07l4.37-5.43h3l-4,4.8,4.44,7h-3L833,308l-1.85,2.11v3h-2.71Z"/><path d="M839.64,307.28c0-3.84,2.67-6.19,5.43-6.19,3.19,0,4.87,2.3,4.87,5.59a6.43,6.43,0,0,1-.12,1.34h-7.49a3.37,3.37,0,0,0,3.48,3.29,4.92,4.92,0,0,0,2.74-.86l.94,1.73a7.45,7.45,0,0,1-4,1.27C842.19,313.45,839.64,311.16,839.64,307.28Zm7.9-1.13c0-1.82-.79-2.93-2.4-2.93-1.39,0-2.59,1-2.83,2.93Z"/><path d="M852.75,309.17v-5.62h-1.68v-2.06l1.82-.12.34-3.22h2.3v3.22h3v2.18h-3v5.62c0,1.39.53,2.06,1.66,2.06a3.37,3.37,0,0,0,1.22-.26l.48,2a7.53,7.53,0,0,1-2.4.43C853.76,313.45,852.75,311.72,852.75,309.17Z"/><path d="M859.59,311.81l1.29-1.78a5.25,5.25,0,0,0,3.26,1.32c1.27,0,1.87-.6,1.87-1.42,0-1-1.27-1.42-2.52-1.9-1.56-.58-3.31-1.46-3.31-3.43s1.66-3.53,4.3-3.53a6.37,6.37,0,0,1,3.91,1.42l-1.27,1.68a4.39,4.39,0,0,0-2.59-1c-1.18,0-1.73.55-1.73,1.3,0,.94,1.18,1.3,2.45,1.75,1.61.6,3.38,1.37,3.38,3.58,0,2-1.61,3.65-4.58,3.65A7.46,7.46,0,0,1,859.59,311.81Z"/><path d="M875.24,296.12h1.87L871.52,317h-1.87Z"/><path d="M879.61,297.46h4.2c4.8,0,7.63,2.59,7.63,7.78s-2.83,7.92-7.49,7.92h-4.34Zm4,13.44c3.17,0,5-1.8,5-5.66s-1.8-5.52-5-5.52h-1.22V310.9Z"/><path d="M894.61,297.46h3.14l2.78,7.68c.34,1,.67,2,1,3.07h.1c.34-1,.65-2.09,1-3.07l2.71-7.68h3.17v15.7h-2.57V306c0-1.46.22-3.55.36-5h-.1l-1.27,3.65-2.57,7.06H900.7l-2.59-7.06L896.86,301h-.1c.12,1.44.36,3.53.36,5v7.18h-2.52Z"/><path d="M911.5,306.1h5.71v2H911.5Z"/><path d="M920,310.9h3.41v-10H920.6v-1.73a10.27,10.27,0,0,0,3.53-1.25h2.06v13h3v2.26H920Z"/><path d="M931.49,305.45c0-5.16,2-7.85,5.18-7.85s5.18,2.71,5.18,7.85-2,8-5.18,8S931.49,310.61,931.49,305.45Zm7.73,0c0-4.32-1.06-5.69-2.54-5.69s-2.54,1.37-2.54,5.69,1.08,5.83,2.54,5.83S939.22,309.77,939.22,305.45Z"/><rect x="787" y="290" width="170" height="30" rx="15" ry="15" style="fill:none;stroke:#000;stroke-miterlimit:10;stroke-width:2px"/><path d="M673.81,29.17V23.56h-1.68V21.49l1.82-.12.34-3.22h2.3v3.22h3v2.18h-3v5.62c0,1.39.53,2.06,1.66,2.06a3.37,3.37,0,0,0,1.22-.26l.48,2a7.54,7.54,0,0,1-2.4.43C674.81,33.45,673.81,31.72,673.81,29.17Z"/><path d="M681.75,17.75a1.71,1.71,0,1,1,1.7,1.56A1.58,1.58,0,0,1,681.75,17.75Zm.31,3.62h2.76V33.16h-2.76Z"/><path d="M687.58,27.28a5.81,5.81,0,0,1,5.9-6.19,5.08,5.08,0,0,1,3.46,1.32l-1.34,1.8a2.88,2.88,0,0,0-2-.86c-1.9,0-3.22,1.56-3.22,3.94s1.3,3.91,3.14,3.91a3.93,3.93,0,0,0,2.42-1L697.11,32a5.89,5.89,0,0,1-3.84,1.44C690.05,33.45,687.58,31.19,687.58,27.28Z"/><path d="M699.44,16.21h2.71V26.8h.07l4.37-5.43h3l-4,4.8,4.44,7h-3L704,28l-1.85,2.11v3h-2.71Z"/><path d="M710.64,27.28c0-3.84,2.67-6.19,5.43-6.19,3.19,0,4.87,2.3,4.87,5.59a6.43,6.43,0,0,1-.12,1.34h-7.49a3.37,3.37,0,0,0,3.48,3.29,4.92,4.92,0,0,0,2.74-.86l.94,1.73a7.45,7.45,0,0,1-4,1.27C713.19,33.45,710.64,31.16,710.64,27.28Zm7.9-1.13c0-1.82-.79-2.93-2.4-2.93-1.39,0-2.59,1-2.83,2.93Z"/><path d="M723.75,29.17V23.56h-1.68V21.49l1.82-.12.34-3.22h2.3v3.22h3v2.18h-3v5.62c0,1.39.53,2.06,1.66,2.06a3.37,3.37,0,0,0,1.22-.26l.48,2a7.53,7.53,0,0,1-2.4.43C724.76,33.45,723.75,31.72,723.75,29.17Z"/><path d="M730.59,31.81,731.88,30a5.25,5.25,0,0,0,3.26,1.32c1.27,0,1.87-.6,1.87-1.42,0-1-1.27-1.42-2.52-1.9-1.56-.58-3.31-1.46-3.31-3.43s1.66-3.53,4.3-3.53a6.37,6.37,0,0,1,3.91,1.42l-1.27,1.68a4.39,4.39,0,0,0-2.59-1c-1.18,0-1.73.55-1.73,1.3,0,.94,1.18,1.3,2.45,1.75,1.61.6,3.38,1.37,3.38,3.58,0,2-1.61,3.65-4.58,3.65A7.46,7.46,0,0,1,730.59,31.81Z"/><path d="M746.24,16.12h1.87L742.52,37h-1.87Z"/><path d="M750.61,17.46h4.2c4.8,0,7.63,2.59,7.63,7.78s-2.83,7.92-7.49,7.92h-4.34Zm4,13.44c3.17,0,5-1.8,5-5.66s-1.8-5.52-5-5.52h-1.22V30.9Z"/><path d="M765.61,17.46h3.14l2.78,7.68c.34,1,.67,2,1,3.07h.1c.34-1,.65-2.09,1-3.07l2.71-7.68h3.17v15.7h-2.57V26c0-1.46.22-3.55.36-5h-.1l-1.27,3.65-2.57,7.06H771.7l-2.59-7.06L767.86,21h-.1c.12,1.44.36,3.53.36,5v7.18h-2.52Z"/><path d="M782.5,26.1h5.71v2H782.5Z"/><path d="M790.21,29.24A4.52,4.52,0,0,1,793,25.33v-.1a4.36,4.36,0,0,1-2.11-3.58c0-2.47,2-4.06,4.61-4.06s4.49,1.66,4.49,4.13a4.62,4.62,0,0,1-2,3.5v.1a4.38,4.38,0,0,1,2.64,4c0,2.35-2.06,4.15-5.16,4.15S790.21,31.72,790.21,29.24Zm7.75,0c0-1.66-1.61-2.26-3.67-3.1A3.6,3.6,0,0,0,792.63,29a2.59,2.59,0,0,0,2.81,2.52A2.27,2.27,0,0,0,798,29.2Zm-.29-7.3a2.16,2.16,0,0,0-2.26-2.33,2,2,0,0,0-2.09,2.09c0,1.54,1.37,2.21,3.07,2.88A3.73,3.73,0,0,0,797.67,21.9Z"/><rect x="658" y="10" width="160" height="30" rx="15" ry="15" style="fill:none;stroke:#000;stroke-miterlimit:10;stroke-width:2px"/><path d="M602.68,77.28c0-3.84,2.42-6.19,5-6.19a4.35,4.35,0,0,1,3.1,1.3l-.1-1.9V66.21h2.76V83.16h-2.28L611,81.88h-.1a4.92,4.92,0,0,1-3.34,1.56C604.57,83.45,602.68,81.16,602.68,77.28Zm8,2.57v-5.5a3.52,3.52,0,0,0-2.4-1c-1.51,0-2.74,1.42-2.74,3.89s1,3.91,2.67,3.91A3.18,3.18,0,0,0,610.67,79.84Z"/><path d="M616.17,77.28c0-3.94,2.66-6.19,5.59-6.19s5.62,2.26,5.62,6.19-2.66,6.17-5.62,6.17S616.17,81.19,616.17,77.28Zm8.38,0c0-2.38-1.06-3.94-2.79-3.94S619,74.9,619,77.28s1,3.91,2.76,3.91S624.54,79.63,624.54,77.28Z"/><path d="M629.34,77.28a5.81,5.81,0,0,1,5.9-6.19,5.08,5.08,0,0,1,3.46,1.32l-1.34,1.8a2.89,2.89,0,0,0-2-.86c-1.9,0-3.22,1.56-3.22,3.94s1.3,3.91,3.14,3.91a3.93,3.93,0,0,0,2.42-1L638.87,82A5.89,5.89,0,0,1,635,83.45C631.81,83.45,629.34,81.19,629.34,77.28Z"/><path d="M641.08,78.76V71.37h2.76v7c0,1.94.55,2.66,1.82,2.66,1,0,1.73-.48,2.62-1.63V71.37H651V83.16h-2.26l-.22-1.73h-.07a4.8,4.8,0,0,1-3.79,2C642.18,83.45,641.08,81.74,641.08,78.76Z"/><path d="M653.37,81.81l1.3-1.78a5.25,5.25,0,0,0,3.26,1.32c1.27,0,1.87-.6,1.87-1.42,0-1-1.27-1.42-2.52-1.9-1.56-.58-3.31-1.46-3.31-3.43s1.66-3.53,4.3-3.53a6.36,6.36,0,0,1,3.91,1.42l-1.27,1.68a4.39,4.39,0,0,0-2.59-1c-1.18,0-1.73.55-1.73,1.3,0,.94,1.18,1.3,2.45,1.75,1.61.6,3.38,1.37,3.38,3.58,0,2-1.61,3.65-4.58,3.65A7.47,7.47,0,0,1,653.37,81.81Z"/><path d="M664.89,66.21h2.76v4.37l-.1,2.28a5.4,5.4,0,0,1,3.77-1.78c2.52,0,3.63,1.7,3.63,4.68v7.39h-2.76v-7c0-1.94-.55-2.66-1.85-2.66-1,0-1.7.5-2.69,1.46v8.23h-2.76Z"/><path d="M677.65,80c0-2.52,2.09-3.84,6.94-4.37,0-1.25-.55-2.3-2.16-2.3a6.72,6.72,0,0,0-3.31,1.15l-1-1.85A9.23,9.23,0,0,1,683,71.08c2.93,0,4.39,1.8,4.39,5.09v7h-2.28l-.19-1.29h-.1a5.74,5.74,0,0,1-3.65,1.58A3.3,3.3,0,0,1,677.65,80Zm6.94,0V77.35c-3.22.41-4.27,1.25-4.27,2.42s.72,1.51,1.7,1.51A3.74,3.74,0,0,0,684.59,80Z"/><path d="M690.66,71.37h2.28l.19,2.09h.1a4,4,0,0,1,3.34-2.38,3,3,0,0,1,1.34.24l-.48,2.4a3.82,3.82,0,0,0-1.22-.19c-.94,0-2.06.65-2.78,2.42v7.2h-2.76Z"/><path d="M698.61,77.28c0-3.84,2.66-6.19,5.42-6.19,3.19,0,4.87,2.3,4.87,5.59a6.48,6.48,0,0,1-.12,1.34h-7.49a3.37,3.37,0,0,0,3.48,3.29,4.92,4.92,0,0,0,2.74-.86l.94,1.73a7.44,7.44,0,0,1-4,1.27C701.15,83.45,698.61,81.16,698.61,77.28Zm7.9-1.13c0-1.82-.79-2.93-2.4-2.93-1.39,0-2.59,1-2.83,2.93Z"/><path d="M711,76.1h5.71v2H711Z"/><path d="M717.76,71.37h2.81l1.87,6.12c.31,1.15.67,2.35,1,3.55h.1c.34-1.2.67-2.4,1-3.55l1.87-6.12h2.66l-4,11.79h-3.19Z"/><path d="M741,79.22h-1.92v3.94h-2.59V79.22h-6.74V77.35l6-9.46h3.29v9.19H741Zm-4.51-2.14V73.63c0-.89.07-2.28.12-3.17h-.1c-.38.79-.82,1.56-1.25,2.38l-2.78,4.25Z"/><polygon points="596 60 743 60 758 75 743 90 596 90 596 60" style="fill:none;stroke:#000;stroke-linecap:round;stroke-linejoin:round;stroke-width:2px;fill-rule:evenodd"/></svg>