<svg id="Layer_1" data-name="Layer 1" xmlns="http://www.w3.org/2000/svg" viewBox="0 0 1400 444"><title>ccd-release</title><line x1="700" y1="118" x2="700" y2="238" style="fill:none;stroke:red;stroke-miterlimit:10;stroke-width:2px"/><line x1="821" y1="39" x2="821" y2="238" style="fill:none;stroke:red;stroke-miterlimit:10;stroke-width:2px"/><line x1="641" y1="299" x2="641" y2="419" style="fill:none;stroke:red;stroke-miterlimit:10;stroke-width:2px"/><path d="M1222.81,242.17v-5.62h-1.68v-2.06l1.82-.12.34-3.22h2.3v3.22h3v2.18h-3v5.62c0,1.39.53,2.06,1.66,2.06a3.37,3.37,0,0,0,1.22-.26l.48,2a7.54,7.54,0,0,1-2.4.43C1223.81,246.45,1222.81,244.72,1222.81,242.17Z"/><path d="M1230.75,230.75a1.71,1.71,0,1,1,1.7,1.56A1.58,1.58,0,0,1,1230.75,230.75Zm.31,3.62h2.76v11.79h-2.76Z"/><path d="M1236.58,240.28a5.81,5.81,0,0,1,5.9-6.19,5.08,5.08,0,0,1,3.46,1.32l-1.34,1.8a2.88,2.88,0,0,0-2-.86c-1.9,0-3.22,1.56-3.22,3.94s1.3,3.91,3.14,3.91a3.93,3.93,0,0,0,2.42-1l1.13,1.82a5.89,5.89,0,0,1-3.84,1.44C1239.05,246.45,1236.58,244.19,1236.58,240.28Z"/><path d="M1248.44,229.21h2.71V239.8h.07l4.37-5.43h3l-4,4.8,4.44,7h-3l-3-5.11-1.85,2.11v3h-2.71Z"/><path d="M1259.64,240.28c0-3.84,2.67-6.19,5.43-6.19,3.19,0,4.87,2.3,4.87,5.59a6.43,6.43,0,0,1-.12,1.34h-7.49a3.37,3.37,0,0,0,3.48,3.29,4.92,4.92,0,0,0,2.74-.86l.94,1.73a7.45,7.45,0,0,1-4,1.27C1262.19,246.45,1259.64,244.16,1259.64,240.28Zm7.9-1.13c0-1.82-.79-2.93-2.4-2.93-1.39,0-2.59,1-2.83,2.93Z"/><path d="M1272.75,242.17v-5.62h-1.68v-2.06l1.82-.12.34-3.22h2.3v3.22h3v2.18h-3v5.62c0,1.39.53,2.06,1.66,2.06a3.37,3.37,0,0,0,1.22-.26l.48,2a7.53,7.53,0,0,1-2.4.43C1273.76,246.45,1272.75,244.72,1272.75,242.17Z"/><path d="M1279.59,244.81l1.29-1.78a5.25,5.25,0,0,0,3.26,1.32c1.27,0,1.87-.6,1.87-1.42,0-1-1.27-1.42-2.52-1.9-1.56-.58-3.31-1.46-3.31-3.43s1.66-3.53,4.3-3.53a6.37,6.37,0,0,1,3.91,1.42l-1.27,1.68a4.39,4.39,0,0,0-2.59-1c-1.18,0-1.73.55-1.73,1.3,0,.94,1.18,1.3,2.45,1.75,1.61.6,3.38,1.37,3.38,3.58,0,2-1.61,3.65-4.58,3.65A7.46,7.46,0,0,1,1279.59,244.81Z"/><path d="M1295.24,229.12h1.87L1291.52,250h-1.87Z"/><path d="M1308.17,246.16l-3.38-6.14h-2.4v6.14h-2.78v-15.7h5.3c3.26,0,5.76,1.15,5.76,4.66a4.39,4.39,0,0,1-3.12,4.49l3.74,6.55Zm-5.79-8.35h2.23c2.14,0,3.31-.91,3.31-2.69s-1.18-2.42-3.31-2.42h-2.23Z"/><path d="M1313.81,230.46h9.48v2.35h-6.7v4.44h5.71v2.35h-5.71v6.55h-2.79Z"/><path d="M1325,238.36c0-5.14,3.22-8.18,7.18-8.18a6.23,6.23,0,0,1,4.54,2l-1.49,1.8a4.09,4.09,0,0,0-3-1.37c-2.57,0-4.39,2.16-4.39,5.69s1.68,5.74,4.32,5.74a4.47,4.47,0,0,0,3.36-1.61l1.49,1.75a6.33,6.33,0,0,1-4.94,2.28C1328.12,246.45,1325,243.56,1325,238.36Z"/><path d="M1337.91,239.1h5.71v2h-5.71Z"/><path d="M1346.4,243.9h3.41v-10H1347v-1.73a10.29,10.29,0,0,0,3.53-1.25h2.06v13h3v2.26h-9.19Z"/><rect x="1207" y="223" width="164" height="30" rx="15" ry="15" style="fill:none;stroke:#000;stroke-miterlimit:10;stroke-width:2px"/><line x1="43" y1="298.5" x2="942" y2="298.5" style="fill:none;stroke:#000;stroke-miterlimit:10;stroke-width:4px"/><circle cx="44" cy="298" r="15"/><circle cx="461" cy="298" r="15"/><circle cx="519" cy="358" r="15"/><circle cx="580" cy="358" r="15"/><circle cx="639" cy="298" r="15"/><circle cx="282" cy="298" r="15"/><circle cx="102" cy="358" r="15"/><circle cx="162" cy="358" r="15"/><circle cx="341" cy="358" r="15"/><circle cx="401" cy="358" r="15"/><circle cx="222" cy="358" r="15"/><polyline points="42.41 298.5 101.95 358.05 222 358 282.28 297.72" style="fill:none;stroke:#000;stroke-miterlimit:10;stroke-width:4px;fill-rule:evenodd"/><polyline points="282.41 298.5 341.95 358.05 401 358.05 461.28 297.77 521.25 357.75 579 357.75 638.87 297.87 699 358 873 358" style="fill:none;stroke:#000;stroke-miterlimit:10;stroke-width:4px;fill-rule:evenodd"/><path d="M1162.4,294.37h2.28l.19,1.61h.1a5,5,0,0,1,3.6-1.9,3.21,3.21,0,0,1,3.26,2.11c1.13-1.2,2.3-2.11,3.79-2.11,2.5,0,3.65,1.7,3.65,4.68v7.39h-2.78v-7c0-1.94-.58-2.66-1.8-2.66a3.66,3.66,0,0,0-2.47,1.46v8.23h-2.76v-7c0-1.94-.58-2.66-1.82-2.66a3.71,3.71,0,0,0-2.47,1.46v8.23h-2.76Z"/><path d="M1182,303c0-2.52,2.09-3.84,6.94-4.37,0-1.25-.55-2.3-2.16-2.3a6.71,6.71,0,0,0-3.31,1.15l-1-1.85a9.22,9.22,0,0,1,4.85-1.54c2.93,0,4.39,1.8,4.39,5.09v7h-2.28l-.19-1.29h-.1a5.74,5.74,0,0,1-3.65,1.58A3.29,3.29,0,0,1,1182,303Zm6.94,0v-2.64c-3.22.41-4.27,1.25-4.27,2.42s.72,1.51,1.71,1.51A3.75,3.75,0,0,0,1188.94,303Z"/><path d="M1193.84,304.81l1.3-1.78a5.25,5.25,0,0,0,3.26,1.32c1.27,0,1.87-.6,1.87-1.42,0-1-1.27-1.42-2.52-1.9-1.56-.58-3.31-1.46-3.31-3.43s1.66-3.53,4.3-3.53a6.36,6.36,0,0,1,3.91,1.42l-1.27,1.68a4.39,4.39,0,0,0-2.59-1c-1.18,0-1.73.55-1.73,1.3,0,.94,1.18,1.3,2.45,1.75,1.61.6,3.38,1.37,3.38,3.58,0,2-1.61,3.65-4.58,3.65A7.47,7.47,0,0,1,1193.84,304.81Z"/><path d="M1205.29,302.17v-5.62h-1.68v-2.06l1.82-.12.34-3.22h2.3v3.22h3v2.18h-3v5.62c0,1.39.53,2.06,1.66,2.06A3.37,3.37,0,0,0,1211,304l.48,2a7.53,7.53,0,0,1-2.4.43C1206.29,306.45,1205.29,304.72,1205.29,302.17Z"/><path d="M1212.39,300.28c0-3.84,2.67-6.19,5.42-6.19,3.19,0,4.87,2.3,4.87,5.59a6.42,6.42,0,0,1-.12,1.34h-7.49a3.37,3.37,0,0,0,3.48,3.29,4.93,4.93,0,0,0,2.74-.86l.94,1.73a7.44,7.44,0,0,1-4,1.27C1214.93,306.45,1212.39,304.16,1212.39,300.28Zm7.9-1.13c0-1.82-.79-2.93-2.4-2.93-1.39,0-2.59,1-2.83,2.93Z"/><path d="M1225.33,294.37h2.28l.19,2.09h.1a4,4,0,0,1,3.34-2.38,3,3,0,0,1,1.34.24l-.48,2.4a3.82,3.82,0,0,0-1.22-.19c-.94,0-2.06.65-2.78,2.42v7.2h-2.76Z"/><rect x="1147" y="283" width="100" height="30" rx="15" ry="15" style="fill:none;stroke:#000;stroke-miterlimit:10;stroke-width:2px"/><polyline points="461 298 581 178 641 178" style="fill:none;stroke:#000;stroke-miterlimit:10;stroke-width:4px;fill-rule:evenodd"/><line x1="521" y1="238" x2="1002" y2="238" style="fill:none;stroke:#000;stroke-miterlimit:10;stroke-width:4px"/><circle cx="580" cy="178" r="15"/><circle cx="639" cy="178" r="15"/><circle cx="701" cy="238" r="15"/><circle cx="701" cy="358" r="15"/><circle cx="761" cy="358" r="15"/><circle cx="821" cy="358" r="15"/><circle cx="881" cy="358" r="15"/><circle cx="822" cy="238" r="15"/><circle cx="1002" cy="238" r="15"/><circle cx="882" cy="178" r="15"/><circle cx="942" cy="178" r="15"/><circle cx="942" cy="299" r="15"/><circle cx="762" cy="178" r="15"/><polyline points="641 178 701.04 238.04 761.54 177.54 822 238 882 178 942 178 1002 238" style="fill:none;stroke:#000;stroke-miterlimit:10;stroke-width:4px;fill-rule:evenodd"/><line x1="881" y1="358" x2="940.63" y2="298.37" style="fill:none;stroke:#000;stroke-miterlimit:10;stroke-width:4px"/><path d="M1047.81,242.17v-5.62h-1.68v-2.06l1.82-.12.34-3.22h2.3v3.22h3v2.18h-3v5.62c0,1.39.53,2.06,1.66,2.06a3.37,3.37,0,0,0,1.22-.26l.48,2a7.54,7.54,0,0,1-2.4.43C1048.81,246.45,1047.81,244.72,1047.81,242.17Z"/><path d="M1055.75,230.75a1.71,1.71,0,1,1,1.7,1.56A1.58,1.58,0,0,1,1055.75,230.75Zm.31,3.62h2.76v11.79h-2.76Z"/><path d="M1061.58,240.28a5.81,5.81,0,0,1,5.9-6.19,5.08,5.08,0,0,1,3.46,1.32l-1.34,1.8a2.88,2.88,0,0,0-2-.86c-1.9,0-3.22,1.56-3.22,3.94s1.3,3.91,3.14,3.91a3.93,3.93,0,0,0,2.42-1l1.13,1.82a5.89,5.89,0,0,1-3.84,1.44C1064.05,246.45,1061.58,244.19,1061.58,240.28Z"/><path d="M1073.44,229.21h2.71V239.8h.07l4.37-5.43h3l-4,4.8,4.44,7h-3l-3-5.11-1.85,2.11v3h-2.71Z"/><path d="M1084.64,240.28c0-3.84,2.67-6.19,5.43-6.19,3.19,0,4.87,2.3,4.87,5.59a6.43,6.43,0,0,1-.12,1.34h-7.49a3.37,3.37,0,0,0,3.48,3.29,4.92,4.92,0,0,0,2.74-.86l.94,1.73a7.45,7.45,0,0,1-4,1.27C1087.19,246.45,1084.64,244.16,1084.64,240.28Zm7.9-1.13c0-1.82-.79-2.93-2.4-2.93-1.39,0-2.59,1-2.83,2.93Z"/><path d="M1097.75,242.17v-5.62h-1.68v-2.06l1.82-.12.34-3.22h2.3v3.22h3v2.18h-3v5.62c0,1.39.53,2.06,1.66,2.06a3.37,3.37,0,0,0,1.22-.26l.48,2a7.53,7.53,0,0,1-2.4.43C1098.76,246.45,1097.75,244.72,1097.75,242.17Z"/><path d="M1104.59,244.81l1.29-1.78a5.25,5.25,0,0,0,3.26,1.32c1.27,0,1.87-.6,1.87-1.42,0-1-1.27-1.42-2.52-1.9-1.56-.58-3.31-1.46-3.31-3.43s1.66-3.53,4.3-3.53a6.37,6.37,0,0,1,3.91,1.42l-1.27,1.68a4.39,4.39,0,0,0-2.59-1c-1.18,0-1.73.55-1.73,1.3,0,.94,1.18,1.3,2.45,1.75,1.61.6,3.38,1.37,3.38,3.58,0,2-1.61,3.65-4.58,3.65A7.46,7.46,0,0,1,1104.59,244.81Z"/><path d="M1120.24,229.12h1.87L1116.52,250h-1.87Z"/><path d="M1124.61,230.46h4.2c4.8,0,7.63,2.59,7.63,7.78s-2.83,7.92-7.49,7.92h-4.34Zm4,13.44c3.17,0,5-1.8,5-5.66s-1.8-5.52-5-5.52h-1.22V243.9Z"/><path d="M1139.61,230.46h3.14l2.78,7.68c.34,1,.67,2,1,3.07h.1c.34-1,.65-2.09,1-3.07l2.71-7.68h3.17v15.7h-2.57V239c0-1.46.22-3.55.36-5h-.1l-1.27,3.65-2.57,7.06h-1.66l-2.59-7.06-1.25-3.65h-.1c.12,1.44.36,3.53.36,5v7.18h-2.52Z"/><path d="M1156.5,239.1h5.71v2h-5.71Z"/><path d="M1172.87,234a3.3,3.3,0,0,0-2.42-1.15c-1.92,0-3.48,1.42-3.6,5.64a4.51,4.51,0,0,1,3.31-1.8c2.64,0,4.46,1.54,4.46,4.73a4.76,4.76,0,0,1-4.8,5c-3,0-5.54-2.33-5.54-7.46,0-5.93,2.88-8.38,6-8.38a5.44,5.44,0,0,1,4.08,1.73Zm-.82,7.42c0-1.8-.89-2.71-2.4-2.71a3.41,3.41,0,0,0-2.74,1.75c.29,2.71,1.37,3.86,2.86,3.86C1171,244.33,1172.05,243.3,1172.05,241.43Z"/><rect x="1032" y="223" width="160" height="30" rx="15" ry="15" style="fill:none;stroke:#000;stroke-miterlimit:10;stroke-width:2px"/><path d="M987.81,303.17v-5.62h-1.68v-2.06l1.82-.12.34-3.22h2.3v3.22h3v2.18h-3v5.62c0,1.39.53,2.06,1.66,2.06a3.37,3.37,0,0,0,1.22-.26l.48,2a7.54,7.54,0,0,1-2.4.43C988.81,307.45,987.81,305.72,987.81,303.17Z"/><path d="M995.75,291.75a1.71,1.71,0,1,1,1.7,1.56A1.58,1.58,0,0,1,995.75,291.75Zm.31,3.62h2.76v11.79h-2.76Z"/><path d="M1001.58,301.28a5.81,5.81,0,0,1,5.9-6.19,5.08,5.08,0,0,1,3.46,1.32l-1.34,1.8a2.88,2.88,0,0,0-2-.86c-1.9,0-3.22,1.56-3.22,3.94s1.3,3.91,3.14,3.91a3.93,3.93,0,0,0,2.42-1l1.13,1.82a5.89,5.89,0,0,1-3.84,1.44C1004.05,307.45,1001.58,305.19,1001.58,301.28Z"/><path d="M1013.44,290.21h2.71V300.8h.07l4.37-5.43h3l-4,4.8,4.44,7h-3l-3-5.11-1.85,2.11v3h-2.71Z"/><path d="M1024.64,301.28c0-3.84,2.67-6.19,5.43-6.19,3.19,0,4.87,2.3,4.87,5.59a6.43,6.43,0,0,1-.12,1.34h-7.49a3.37,3.37,0,0,0,3.48,3.29,4.92,4.92,0,0,0,2.74-.86l.94,1.73a7.45,7.45,0,0,1-4,1.27C1027.19,307.45,1024.64,305.16,1024.64,301.28Zm7.9-1.13c0-1.82-.79-2.93-2.4-2.93-1.39,0-2.59,1-2.83,2.93Z"/><path d="M1037.75,303.17v-5.62h-1.68v-2.06l1.82-.12.34-3.22h2.3v3.22h3v2.18h-3v5.62c0,1.39.53,2.06,1.66,2.06a3.37,3.37,0,0,0,1.22-.26l.48,2a7.53,7.53,0,0,1-2.4.43C1038.76,307.45,1037.75,305.72,1037.75,303.17Z"/><path d="M1044.59,305.81l1.29-1.78a5.25,5.25,0,0,0,3.26,1.32c1.27,0,1.87-.6,1.87-1.42,0-1-1.27-1.42-2.52-1.9-1.56-.58-3.31-1.46-3.31-3.43s1.66-3.53,4.3-3.53a6.37,6.37,0,0,1,3.91,1.42l-1.27,1.68a4.39,4.39,0,0,0-2.59-1c-1.18,0-1.73.55-1.73,1.3,0,.94,1.18,1.3,2.45,1.75,1.61.6,3.38,1.37,3.38,3.58,0,2-1.61,3.65-4.58,3.65A7.46,7.46,0,0,1,1044.59,305.81Z"/><path d="M1060.24,290.12h1.87L1056.52,311h-1.87Z"/><path d="M1064.61,291.46h4.2c4.8,0,7.63,2.59,7.63,7.78s-2.83,7.92-7.49,7.92h-4.34Zm4,13.44c3.17,0,5-1.8,5-5.66s-1.8-5.52-5-5.52h-1.22V304.9Z"/><path d="M1079.61,291.46h3.14l2.78,7.68c.34,1,.67,2,1,3.07h.1c.34-1,.65-2.09,1-3.07l2.71-7.68h3.17v15.7h-2.57V300c0-1.46.22-3.55.36-5h-.1l-1.27,3.65-2.57,7.06h-1.66l-2.59-7.06-1.25-3.65h-.1c.12,1.44.36,3.53.36,5v7.18h-2.52Z"/><path d="M1096.5,300.1h5.71v2h-5.71Z"/><path d="M1111.5,294.22h-7.22v-2.33h10.25v1.68c-3.58,4.44-4.2,7.63-4.46,13.58h-2.81C1107.52,301.73,1108.55,298.32,1111.5,294.22Z"/><rect x="972" y="284" width="160" height="30" rx="15" ry="15" style="fill:none;stroke:#000;stroke-miterlimit:10;stroke-width:2px"/><path d="M1128.68,200.28c0-3.84,2.42-6.19,5-6.19a4.35,4.35,0,0,1,3.1,1.3l-.1-1.9v-4.27h2.76v16.95h-2.28l-.19-1.27h-.1a4.92,4.92,0,0,1-3.34,1.56C1130.57,206.45,1128.68,204.16,1128.68,200.28Zm8,2.57v-5.5a3.52,3.52,0,0,0-2.4-1c-1.51,0-2.74,1.42-2.74,3.89s1,3.91,2.67,3.91A3.18,3.18,0,0,0,1136.67,202.84Z"/><path d="M1142.17,200.28c0-3.94,2.66-6.19,5.59-6.19s5.62,2.26,5.62,6.19-2.66,6.17-5.62,6.17S1142.17,204.19,1142.17,200.28Zm8.38,0c0-2.38-1.06-3.94-2.79-3.94s-2.76,1.56-2.76,3.94,1,3.91,2.76,3.91S1150.54,202.63,1150.54,200.28Z"/><path d="M1155.34,200.28a5.81,5.81,0,0,1,5.9-6.19,5.08,5.08,0,0,1,3.46,1.32l-1.34,1.8a2.89,2.89,0,0,0-2-.86c-1.9,0-3.22,1.56-3.22,3.94s1.3,3.91,3.14,3.91a3.93,3.93,0,0,0,2.42-1l1.13,1.82a5.89,5.89,0,0,1-3.84,1.44C1157.81,206.45,1155.34,204.19,1155.34,200.28Z"/><path d="M1167.08,201.76v-7.39h2.76v7c0,1.94.55,2.66,1.82,2.66,1,0,1.73-.48,2.62-1.63v-8.07H1177v11.79h-2.26l-.22-1.73h-.07a4.8,4.8,0,0,1-3.79,2C1168.18,206.45,1167.08,204.74,1167.08,201.76Z"/><path d="M1179.37,204.81l1.3-1.78a5.25,5.25,0,0,0,3.26,1.32c1.27,0,1.87-.6,1.87-1.42,0-1-1.27-1.42-2.52-1.9-1.56-.58-3.31-1.46-3.31-3.43s1.66-3.53,4.3-3.53a6.36,6.36,0,0,1,3.91,1.42l-1.27,1.68a4.39,4.39,0,0,0-2.59-1c-1.18,0-1.73.55-1.73,1.3,0,.94,1.18,1.3,2.45,1.75,1.61.6,3.38,1.37,3.38,3.58,0,2-1.61,3.65-4.58,3.65A7.47,7.47,0,0,1,1179.37,204.81Z"/><path d="M1190.89,189.21h2.76v4.37l-.1,2.28a5.4,5.4,0,0,1,3.77-1.78c2.52,0,3.63,1.7,3.63,4.68v7.39h-2.76v-7c0-1.94-.55-2.66-1.85-2.66-1,0-1.7.5-2.69,1.46v8.23h-2.76Z"/><path d="M1203.65,203c0-2.52,2.09-3.84,6.94-4.37,0-1.25-.55-2.3-2.16-2.3a6.72,6.72,0,0,0-3.31,1.15l-1-1.85a9.23,9.23,0,0,1,4.85-1.54c2.93,0,4.39,1.8,4.39,5.09v7h-2.28l-.19-1.29h-.1a5.74,5.74,0,0,1-3.65,1.58A3.3,3.3,0,0,1,1203.65,203Zm6.94,0v-2.64c-3.22.41-4.27,1.25-4.27,2.42s.72,1.51,1.7,1.51A3.74,3.74,0,0,0,1210.59,203Z"/><path d="M1216.66,194.37h2.28l.19,2.09h.1a4,4,0,0,1,3.34-2.38,3,3,0,0,1,1.34.24l-.48,2.4a3.82,3.82,0,0,0-1.22-.19c-.94,0-2.06.65-2.78,2.42v7.2h-2.76Z"/><path d="M1224.61,200.28c0-3.84,2.66-6.19,5.42-6.19,3.19,0,4.87,2.3,4.87,5.59a6.48,6.48,0,0,1-.12,1.34h-7.49a3.37,3.37,0,0,0,3.48,3.29,4.92,4.92,0,0,0,2.74-.86l.94,1.73a7.44,7.44,0,0,1-4,1.27C1227.15,206.45,1224.61,204.16,1224.61,200.28Zm7.9-1.13c0-1.82-.79-2.93-2.4-2.93-1.39,0-2.59,1-2.83,2.93Z"/><path d="M1237,199.1h5.71v2H1237Z"/><path d="M1243.76,194.37h2.81l1.87,6.12c.31,1.15.67,2.35,1,3.55h.1c.34-1.2.67-2.4,1-3.55l1.87-6.12h2.66l-4,11.79h-3.19Z"/><path d="M1255.92,204.29l1.32-1.78a5,5,0,0,0,3.63,1.68c1.66,0,2.81-.86,2.81-2.3s-1-2.59-4.49-2.59v-2c3,0,4-1,4-2.45a2,2,0,0,0-2.26-2,4.46,4.46,0,0,0-3.07,1.44l-1.42-1.7a6.74,6.74,0,0,1,4.58-1.92c2.93,0,4.94,1.44,4.94,4a3.67,3.67,0,0,1-2.66,3.5v.1a3.88,3.88,0,0,1,3.17,3.79c0,2.78-2.42,4.42-5.35,4.42A6.64,6.64,0,0,1,1255.92,204.29Z"/><polygon points="1274 213 1127 213 1112 198 1127 183 1274 183 1274 213" style="fill:none;stroke:#000;stroke-linecap:round;stroke-linejoin:round;stroke-width:2px;fill-rule:evenodd"/><path d="M1047.93,194.37h2.81l1.87,6.12c.31,1.15.67,2.35,1,3.55h.1c.34-1.2.67-2.4,1-3.55l1.87-6.12h2.66l-4,11.79H1052Z"/><path d="M1061.3,203.9h3.41v-10h-2.81v-1.73a10.27,10.27,0,0,0,3.53-1.25h2.06v13h3v2.26h-9.19Z"/><path d="M1073.35,204.57a1.8,1.8,0,0,1,1.8-1.87,1.88,1.88,0,0,1,0,3.75A1.8,1.8,0,0,1,1073.35,204.57Z"/><path d="M1079.4,198.45c0-5.16,2-7.85,5.18-7.85s5.18,2.71,5.18,7.85-2,8-5.18,8S1079.4,203.61,1079.4,198.45Zm7.73,0c0-4.32-1.06-5.69-2.54-5.69s-2.54,1.37-2.54,5.69,1.08,5.83,2.54,5.83S1087.13,202.77,1087.13,198.45Z"/><polygon points="1097 213 1047 213 1032 198 1047 183 1097 183 1097 213" style="fill:none;stroke:#000;stroke-linecap:round;stroke-linejoin:round;stroke-width:2px;fill-rule:evenodd"/><path d="M555.81,123.17v-5.62h-1.68v-2.06l1.82-.12.34-3.22h2.3v3.22h3v2.18h-3v5.62c0,1.39.53,2.06,1.66,2.06a3.37,3.37,0,0,0,1.22-.26l.48,2a7.54,7.54,0,0,1-2.4.43C556.81,127.45,555.81,125.72,555.81,123.17Z"/><path d="M563.75,111.75a1.71,1.71,0,1,1,1.7,1.56A1.58,1.58,0,0,1,563.75,111.75Zm.31,3.62h2.76v11.79h-2.76Z"/><path d="M569.58,121.28a5.81,5.81,0,0,1,5.9-6.19,5.08,5.08,0,0,1,3.46,1.32l-1.34,1.8a2.88,2.88,0,0,0-2-.86c-1.9,0-3.22,1.56-3.22,3.94s1.3,3.91,3.14,3.91a3.93,3.93,0,0,0,2.42-1l1.13,1.82a5.89,5.89,0,0,1-3.84,1.44C572.05,127.45,569.58,125.19,569.58,121.28Z"/><path d="M581.44,110.21h2.71V120.8h.07l4.37-5.43h3l-4,4.8,4.44,7h-3L586,122l-1.85,2.11v3h-2.71Z"/><path d="M592.64,121.28c0-3.84,2.67-6.19,5.43-6.19,3.19,0,4.87,2.3,4.87,5.59a6.43,6.43,0,0,1-.12,1.34h-7.49a3.37,3.37,0,0,0,3.48,3.29,4.92,4.92,0,0,0,2.74-.86l.94,1.73a7.45,7.45,0,0,1-4,1.27C595.19,127.45,592.64,125.16,592.64,121.28Zm7.9-1.13c0-1.82-.79-2.93-2.4-2.93-1.39,0-2.59,1-2.83,2.93Z"/><path d="M605.75,123.17v-5.62h-1.68v-2.06l1.82-.12.34-3.22h2.3v3.22h3v2.18h-3v5.62c0,1.39.53,2.06,1.66,2.06a3.37,3.37,0,0,0,1.22-.26l.48,2a7.53,7.53,0,0,1-2.4.43C606.76,127.45,605.75,125.72,605.75,123.17Z"/><path d="M612.59,125.81l1.29-1.78a5.25,5.25,0,0,0,3.26,1.32c1.27,0,1.87-.6,1.87-1.42,0-1-1.27-1.42-2.52-1.9-1.56-.58-3.31-1.46-3.31-3.43s1.66-3.53,4.3-3.53a6.37,6.37,0,0,1,3.91,1.42l-1.27,1.68a4.39,4.39,0,0,0-2.59-1c-1.18,0-1.73.55-1.73,1.3,0,.94,1.18,1.3,2.45,1.75,1.61.6,3.38,1.37,3.38,3.58,0,2-1.61,3.65-4.58,3.65A7.46,7.46,0,0,1,612.59,125.81Z"/><path d="M628.24,110.12h1.87L624.52,131h-1.87Z"/><path d="M632.61,111.46h4.2c4.8,0,7.63,2.59,7.63,7.78s-2.83,7.92-7.49,7.92h-4.34Zm4,13.44c3.17,0,5-1.8,5-5.66s-1.8-5.52-5-5.52h-1.22V124.9Z"/><path d="M647.61,111.46h3.14l2.78,7.68c.34,1,.67,2,1,3.07h.1c.34-1,.65-2.09,1-3.07l2.71-7.68h3.17v15.7h-2.57V120c0-1.46.22-3.55.36-5h-.1l-1.27,3.65-2.57,7.06H653.7l-2.59-7.06L649.86,115h-.1c.12,1.44.36,3.53.36,5v7.18h-2.52Z"/><path d="M664.5,120.1h5.71v2H664.5Z"/><path d="M671.8,125.29l1.32-1.78a5,5,0,0,0,3.62,1.68c1.66,0,2.81-.86,2.81-2.3s-1-2.59-4.49-2.59v-2c3,0,4-1,4-2.45a2,2,0,0,0-2.26-2,4.45,4.45,0,0,0-3.07,1.44l-1.42-1.7a6.74,6.74,0,0,1,4.58-1.92c2.93,0,4.95,1.44,4.95,4a3.67,3.67,0,0,1-2.66,3.5v.1a3.88,3.88,0,0,1,3.17,3.79c0,2.78-2.42,4.42-5.35,4.42A6.64,6.64,0,0,1,671.8,125.29Z"/><rect x="540" y="104" width="160" height="30" rx="15" ry="15" style="fill:none;stroke:#000;stroke-miterlimit:10;stroke-width:2px"/><path d="M676.81,83.17V77.56h-1.68V75.49l1.82-.12.34-3.22h2.3v3.22h3v2.18h-3v5.62c0,1.39.53,2.06,1.66,2.06a3.37,3.37,0,0,0,1.22-.26l.48,2a7.54,7.54,0,0,1-2.4.43C677.81,87.45,676.81,85.72,676.81,83.17Z"/><path d="M684.75,71.75a1.71,1.71,0,1,1,1.7,1.56A1.58,1.58,0,0,1,684.75,71.75Zm.31,3.62h2.76V87.16h-2.76Z"/><path d="M690.58,81.28a5.81,5.81,0,0,1,5.9-6.19,5.08,5.08,0,0,1,3.46,1.32l-1.34,1.8a2.88,2.88,0,0,0-2-.86c-1.9,0-3.22,1.56-3.22,3.94s1.3,3.91,3.14,3.91a3.93,3.93,0,0,0,2.42-1L700.11,86a5.89,5.89,0,0,1-3.84,1.44C693.05,87.45,690.58,85.19,690.58,81.28Z"/><path d="M702.44,70.21h2.71V80.8h.07l4.37-5.43h3l-4,4.8,4.44,7h-3L707,82l-1.85,2.11v3h-2.71Z"/><path d="M713.64,81.28c0-3.84,2.67-6.19,5.43-6.19,3.19,0,4.87,2.3,4.87,5.59a6.43,6.43,0,0,1-.12,1.34h-7.49a3.37,3.37,0,0,0,3.48,3.29,4.92,4.92,0,0,0,2.74-.86l.94,1.73a7.45,7.45,0,0,1-4,1.27C716.19,87.45,713.64,85.16,713.64,81.28Zm7.9-1.13c0-1.82-.79-2.93-2.4-2.93-1.39,0-2.59,1-2.83,2.93Z"/><path d="M726.75,83.17V77.56h-1.68V75.49l1.82-.12.34-3.22h2.3v3.22h3v2.18h-3v5.62c0,1.39.53,2.06,1.66,2.06a3.37,3.37,0,0,0,1.22-.26l.48,2a7.53,7.53,0,0,1-2.4.43C727.76,87.45,726.75,85.72,726.75,83.17Z"/><path d="M733.59,85.81,734.88,84a5.25,5.25,0,0,0,3.26,1.32c1.27,0,1.87-.6,1.87-1.42,0-1-1.27-1.42-2.52-1.9-1.56-.58-3.31-1.46-3.31-3.43s1.66-3.53,4.3-3.53a6.37,6.37,0,0,1,3.91,1.42l-1.27,1.68a4.39,4.39,0,0,0-2.59-1c-1.18,0-1.73.55-1.73,1.3,0,.94,1.18,1.3,2.45,1.75,1.61.6,3.38,1.37,3.38,3.58,0,2-1.61,3.65-4.58,3.65A7.46,7.46,0,0,1,733.59,85.81Z"/><path d="M749.24,70.12h1.87L745.52,91h-1.87Z"/><path d="M753.61,71.46h4.2c4.8,0,7.63,2.59,7.63,7.78s-2.83,7.92-7.49,7.92h-4.34Zm4,13.44c3.17,0,5-1.8,5-5.66s-1.8-5.52-5-5.52h-1.22V84.9Z"/><path d="M768.61,71.46h3.14l2.78,7.68c.34,1,.67,2,1,3.07h.1c.34-1,.65-2.09,1-3.07l2.71-7.68h3.17v15.7h-2.57V80c0-1.46.22-3.55.36-5h-.1l-1.27,3.65-2.57,7.06H774.7l-2.59-7.06L770.86,75h-.1c.12,1.44.36,3.53.36,5v7.18h-2.52Z"/><path d="M785.5,80.1h5.71v2H785.5Z"/><path d="M803.91,83.22H802v3.94H799.4V83.22h-6.75V81.35l6-9.46H802v9.19h1.92Zm-4.51-2.14V77.63c0-.89.07-2.28.12-3.17h-.1c-.38.79-.82,1.56-1.25,2.38l-2.79,4.25Z"/><rect x="661" y="64" width="160" height="30" rx="15" ry="15" style="fill:none;stroke:#000;stroke-miterlimit:10;stroke-width:2px"/><path d="M496.81,423.17v-5.62h-1.68v-2.06l1.82-.12.34-3.22h2.3v3.22h3v2.18h-3v5.62c0,1.39.53,2.06,1.66,2.06a3.37,3.37,0,0,0,1.22-.26l.48,2a7.54,7.54,0,0,1-2.4.43C497.81,427.45,496.81,425.72,496.81,423.17Z"/><path d="M504.75,411.75a1.71,1.71,0,1,1,1.7,1.56A1.58,1.58,0,0,1,504.75,411.75Zm.31,3.62h2.76v11.79h-2.76Z"/><path d="M510.58,421.28a5.81,5.81,0,0,1,5.9-6.19,5.08,5.08,0,0,1,3.46,1.32l-1.34,1.8a2.88,2.88,0,0,0-2-.86c-1.9,0-3.22,1.56-3.22,3.94s1.3,3.91,3.14,3.91a3.93,3.93,0,0,0,2.42-1l1.13,1.82a5.89,5.89,0,0,1-3.84,1.44C513.05,427.45,510.58,425.19,510.58,421.28Z"/><path d="M522.44,410.21h2.71V420.8h.07l4.37-5.43h3l-4,4.8,4.44,7h-3L527,422l-1.85,2.11v3h-2.71Z"/><path d="M533.64,421.28c0-3.84,2.67-6.19,5.43-6.19,3.19,0,4.87,2.3,4.87,5.59a6.43,6.43,0,0,1-.12,1.34h-7.49a3.37,3.37,0,0,0,3.48,3.29,4.92,4.92,0,0,0,2.74-.86l.94,1.73a7.45,7.45,0,0,1-4,1.27C536.19,427.45,533.64,425.16,533.64,421.28Zm7.9-1.13c0-1.82-.79-2.93-2.4-2.93-1.39,0-2.59,1-2.83,2.93Z"/><path d="M546.75,423.17v-5.62h-1.68v-2.06l1.82-.12.34-3.22h2.3v3.22h3v2.18h-3v5.62c0,1.39.53,2.06,1.66,2.06a3.37,3.37,0,0,0,1.22-.26l.48,2a7.53,7.53,0,0,1-2.4.43C547.76,427.45,546.75,425.72,546.75,423.17Z"/><path d="M553.59,425.81l1.29-1.78a5.25,5.25,0,0,0,3.26,1.32c1.27,0,1.87-.6,1.87-1.42,0-1-1.27-1.42-2.52-1.9-1.56-.58-3.31-1.46-3.31-3.43s1.66-3.53,4.3-3.53a6.37,6.37,0,0,1,3.91,1.42l-1.27,1.68a4.39,4.39,0,0,0-2.59-1c-1.18,0-1.73.55-1.73,1.3,0,.94,1.18,1.3,2.45,1.75,1.61.6,3.38,1.37,3.38,3.58,0,2-1.61,3.65-4.58,3.65A7.46,7.46,0,0,1,553.59,425.81Z"/><path d="M569.24,410.12h1.87L565.52,431h-1.87Z"/><path d="M573.61,411.46h4.2c4.8,0,7.63,2.59,7.63,7.78s-2.83,7.92-7.49,7.92h-4.34Zm4,13.44c3.17,0,5-1.8,5-5.66s-1.8-5.52-5-5.52h-1.22V424.9Z"/><path d="M588.61,411.46h3.14l2.78,7.68c.34,1,.67,2,1,3.07h.1c.34-1,.65-2.09,1-3.07l2.71-7.68h3.17v15.7h-2.57V420c0-1.46.22-3.55.36-5h-.1l-1.27,3.65-2.57,7.06H594.7l-2.59-7.06L590.86,415h-.1c.12,1.44.36,3.53.36,5v7.18h-2.52Z"/><path d="M605.5,420.1h5.71v2H605.5Z"/><path d="M612.8,425.33l1.27-1.78a5.12,5.12,0,0,0,3.58,1.63,2.77,2.77,0,0,0,3-2.93,2.62,2.62,0,0,0-2.81-2.86,3.92,3.92,0,0,0-2.45.86l-1.32-.84.46-7.54h8.16v2.33h-5.76l-.31,3.7a4.32,4.32,0,0,1,2-.5c2.62,0,4.8,1.49,4.8,4.78a5.15,5.15,0,0,1-5.38,5.26A7,7,0,0,1,612.8,425.33Z"/><rect x="481" y="404" width="160" height="30" rx="15" ry="15" style="fill:none;stroke:#000;stroke-miterlimit:10;stroke-width:2px"/><path d="M583,209.72h-5.28L576.49,214h-2.83l5.11-15.7H582l5.11,15.7h-2.93Zm-.62-2.18-.55-1.92c-.5-1.66-1-3.46-1.42-5.18h-.1c-.43,1.75-.89,3.53-1.39,5.18l-.55,1.92Z"/><path d="M700.61,333.55H695.5L693.32,338h-2.86l8.4-15.7h3.07l1.68,15.7h-2.69Zm-.14-2-.17-2.38c-.1-1.61-.22-3.17-.29-4.87h-.1c-.77,1.7-1.46,3.24-2.28,4.87l-1.18,2.38Z"/><path d="M709,321.45h2.52l-1,2.83-1.82,4.22H707Z"/><path d="M755,322.27h4.51c3.07,0,5.06,1.15,5.06,3.53a4.22,4.22,0,0,1-3.46,3.91l0,.1c1.68.41,2.79,1.39,2.79,3.07,0,3.6-2.93,5.09-6.65,5.09h-5.35Zm2.23,13.68c2.59,0,4.15-.94,4.15-3,0-1.44-1.06-2.33-3-2.33h-2.42l-1.06,5.28Zm1-7.1c2.57,0,3.74-1.06,3.74-2.64,0-1.22-.94-1.92-3-1.92h-1.78l-.94,4.56Z"/><path d="M769.77,321.45h2.52l-1,2.83-1.82,4.22h-1.7Z"/><path d="M812.86,331.8c0-5.18,3.43-9.82,8.23-9.82a4.53,4.53,0,0,1,4,2.4l-1.78,1.37a2.75,2.75,0,0,0-2.38-1.54c-3.19,0-5.45,3.74-5.45,7.39,0,2.64,1.08,4.42,3.62,4.42a4.7,4.7,0,0,0,3-1.3l1.13,1.66a7,7,0,0,1-4.63,1.87C815,338.25,812.86,335.73,812.86,331.8Z"/><path d="M829.35,321.45h2.52l-1,2.83-1.82,4.22h-1.7Z"/><path d="M874.84,322.27H878c4.37,0,6.79,2.16,6.79,6.14,0,6-3.38,9.55-8.54,9.55h-4.56Zm1.39,13.61c3.53,0,6-2.66,6-7.3,0-2.78-1.56-4.22-4.22-4.22h-1l-2.28,11.52Z"/><path d="M889.89,321.45h2.52l-1,2.83-1.82,4.22h-1.7Z"/><path d="M634.23,198.27h5c3.24,0,5.62,1,5.62,3.86a3.54,3.54,0,0,1-2.18,3.41v.1a3.59,3.59,0,0,1,3,3.72c0,3.14-2.57,4.61-6,4.61h-5.42Zm4.78,6.48c2.18,0,3.12-.86,3.12-2.21,0-1.54-1-2.11-3.07-2.11h-2v4.32Zm.36,7.06c2.3,0,3.6-.84,3.6-2.59s-1.25-2.38-3.6-2.38H637v5Z"/><path d="M756.67,206.16c0-5.14,3.22-8.18,7.18-8.18a6.23,6.23,0,0,1,4.54,2l-1.49,1.8a4.1,4.1,0,0,0-3-1.37c-2.57,0-4.39,2.16-4.39,5.69s1.68,5.74,4.32,5.74a4.47,4.47,0,0,0,3.36-1.61l1.49,1.75a6.33,6.33,0,0,1-4.94,2.28C759.79,214.25,756.67,211.37,756.67,206.16Z"/><path d="M876.9,198.27h4.2c4.8,0,7.63,2.59,7.63,7.78S885.9,214,881.24,214H876.9Zm4,13.44c3.17,0,5-1.8,5-5.67s-1.8-5.52-5-5.52h-1.22v11.19Z"/><path d="M937.94,198.27h9.46v2.35h-6.67v4h5.64V207h-5.64v4.63h6.91V214h-9.7Z"/><path d="M665.68,41.28c0-3.84,2.42-6.19,5-6.19a4.35,4.35,0,0,1,3.1,1.3l-.1-1.9V30.21h2.76V47.16h-2.28L674,45.88h-.1a4.92,4.92,0,0,1-3.34,1.56C667.57,47.45,665.68,45.16,665.68,41.28Zm8,2.57v-5.5a3.52,3.52,0,0,0-2.4-1c-1.51,0-2.74,1.42-2.74,3.89s1,3.91,2.67,3.91A3.18,3.18,0,0,0,673.67,43.84Z"/><path d="M679.17,41.28c0-3.94,2.66-6.19,5.59-6.19s5.62,2.26,5.62,6.19-2.66,6.17-5.62,6.17S679.17,45.19,679.17,41.28Zm8.38,0c0-2.38-1.06-3.94-2.79-3.94S682,38.9,682,41.28s1,3.91,2.76,3.91S687.54,43.63,687.54,41.28Z"/><path d="M692.34,41.28a5.81,5.81,0,0,1,5.9-6.19,5.08,5.08,0,0,1,3.46,1.32l-1.34,1.8a2.89,2.89,0,0,0-2-.86c-1.9,0-3.22,1.56-3.22,3.94s1.3,3.91,3.14,3.91a3.93,3.93,0,0,0,2.42-1L701.87,46A5.89,5.89,0,0,1,698,47.45C694.81,47.45,692.34,45.19,692.34,41.28Z"/><path d="M704.08,42.76V35.37h2.76v7c0,1.94.55,2.66,1.82,2.66,1,0,1.73-.48,2.62-1.63V35.37H714V47.16h-2.26l-.22-1.73h-.07a4.8,4.8,0,0,1-3.79,2C705.18,47.45,704.08,45.74,704.08,42.76Z"/><path d="M716.37,45.81l1.3-1.78a5.25,5.25,0,0,0,3.26,1.32c1.27,0,1.87-.6,1.87-1.42,0-1-1.27-1.42-2.52-1.9-1.56-.58-3.31-1.46-3.31-3.43s1.66-3.53,4.3-3.53a6.36,6.36,0,0,1,3.91,1.42l-1.27,1.68a4.39,4.39,0,0,0-2.59-1c-1.18,0-1.73.55-1.73,1.3,0,.94,1.18,1.3,2.45,1.75,1.61.6,3.38,1.37,3.38,3.58,0,2-1.61,3.65-4.58,3.65A7.47,7.47,0,0,1,716.37,45.81Z"/><path d="M727.89,30.21h2.76v4.37l-.1,2.28a5.4,5.4,0,0,1,3.77-1.78c2.52,0,3.63,1.7,3.63,4.68v7.39h-2.76v-7c0-1.94-.55-2.66-1.85-2.66-1,0-1.7.5-2.69,1.46v8.23h-2.76Z"/><path d="M740.65,44c0-2.52,2.09-3.84,6.94-4.37,0-1.25-.55-2.3-2.16-2.3a6.72,6.72,0,0,0-3.31,1.15l-1-1.85A9.23,9.23,0,0,1,746,35.08c2.93,0,4.39,1.8,4.39,5.09v7h-2.28l-.19-1.29h-.1a5.74,5.74,0,0,1-3.65,1.58A3.3,3.3,0,0,1,740.65,44Zm6.94,0V41.35c-3.22.41-4.27,1.25-4.27,2.42s.72,1.51,1.7,1.51A3.74,3.74,0,0,0,747.59,44Z"/><path d="M753.66,35.37h2.28l.19,2.09h.1a4,4,0,0,1,3.34-2.38,3,3,0,0,1,1.34.24l-.48,2.4a3.82,3.82,0,0,0-1.22-.19c-.94,0-2.06.65-2.78,2.42v7.2h-2.76Z"/><path d="M761.61,41.28c0-3.84,2.66-6.19,5.42-6.19,3.19,0,4.87,2.3,4.87,5.59a6.48,6.48,0,0,1-.12,1.34h-7.49a3.37,3.37,0,0,0,3.48,3.29,4.92,4.92,0,0,0,2.74-.86l.94,1.73a7.44,7.44,0,0,1-4,1.27C764.15,47.45,761.61,45.16,761.61,41.28Zm7.9-1.13c0-1.82-.79-2.93-2.4-2.93-1.39,0-2.59,1-2.83,2.93Z"/><path d="M774,40.1h5.71v2H774Z"/><path d="M780.76,35.37h2.81l1.87,6.12c.31,1.15.67,2.35,1,3.55h.1c.34-1.2.67-2.4,1-3.55l1.87-6.12h2.66l-4,11.79h-3.19Z"/><path d="M793.26,45.55c4.25-4.1,6.91-6.79,6.91-9.12a2.37,2.37,0,0,0-2.52-2.64,4.22,4.22,0,0,0-3,1.71L793.14,34A6.25,6.25,0,0,1,798,31.6a4.46,4.46,0,0,1,4.82,4.68c0,2.71-2.52,5.5-5.54,8.69.79-.07,1.8-.17,2.54-.17h3.74v2.35H793.26Z"/><polygon points="659 24 806 24 821 39 806 54 659 54 659 24" style="fill:none;stroke:#000;stroke-linecap:round;stroke-linejoin:round;stroke-width:2px;fill-rule:evenodd"/></svg>